<?xml version="1.0" encoding="UTF-8" standalone="no"?>
<svg
   xmlns:dc="http://purl.org/dc/elements/1.1/"
   xmlns:cc="http://creativecommons.org/ns#"
   xmlns:rdf="http://www.w3.org/1999/02/22-rdf-syntax-ns#"
   xmlns:svg="http://www.w3.org/2000/svg"
   xmlns="http://www.w3.org/2000/svg"
   xmlns:sodipodi="http://sodipodi.sourceforge.net/DTD/sodipodi-0.dtd"
   xmlns:inkscape="http://www.inkscape.org/namespaces/inkscape"
   viewBox="0 0 2000 320"
   preserveAspectRatio="xMinYMin meet"
   version="1.1"
   id="svg50629"
   sodipodi:docname="walk-sequence-ID-filledWhite.svg"
   inkscape:version="1.0 (4035a4f, 2020-05-01)">
  <metadata
     id="metadata50635">
    <rdf:RDF>
      <cc:Work
         rdf:about="">
        <dc:format>image/svg+xml</dc:format>
        <dc:type
           rdf:resource="http://purl.org/dc/dcmitype/StillImage" />
        <dc:title />
      </cc:Work>
    </rdf:RDF>
  </metadata>
  <defs
     id="defs50633" />
  <sodipodi:namedview
     inkscape:document-rotation="0"
     pagecolor="#ffffff"
     bordercolor="#666666"
     borderopacity="1"
     objecttolerance="10"
     gridtolerance="10"
     guidetolerance="10"
     inkscape:pageopacity="0"
     inkscape:pageshadow="2"
     inkscape:window-width="1680"
     inkscape:window-height="803"
     id="namedview50631"
     showgrid="false"
     inkscape:zoom="0.5901108"
     inkscape:cx="1730.1159"
     inkscape:cy="441.32636"
     inkscape:window-x="0"
     inkscape:window-y="84"
     inkscape:window-maximized="0"
     inkscape:current-layer="svg50629"
     showguides="true"
     inkscape:guide-bbox="true">
    <sodipodi:guide
       position="165.01203,247.04216"
       orientation="0,-1"
       id="guide55033" />
    <sodipodi:guide
       position="1401.8678,228.92511"
       orientation="0,-1"
       id="guide55056" />
    <sodipodi:guide
       position="891.65253,263.69026"
       orientation="0,-1"
       id="guide55073" />
  </sodipodi:namedview>
  <g
     id="walk1">
    <path
       d="m 126,34 c -6,0 -12,1 -17,4 -25,13 -27,49 -3,64 11,7 15,16 6,16 -4,0 -25,11 -33,18 -7,6 -7,7 -8,24 -1,11 -3,20 -6,25 -2,6 -3,9 -1,10 3,5 22,13 29,13 5,0 6,1 6,5 0,7 -6,18 -12,26 -5,5 -18,12 -30,16 -4,1 -4,3 -3,13 2,16 5,26 10,31 3,3 6,4 17,3 8,-1 15,-2 16,-2 2,-2 -5,-12 -11,-14 -2,-1 -5,-4 -5,-6 -1,-1 -2,-4 -3,-6 -1,-3 2,-5 12,-11 11,-7 13,-9 19,-22 3,-8 7,-15 8,-15 4,0 18,22 22,33 2,6 5,16 6,22 l 1,12 7,-1 c 16,-2 42,-20 42,-29 0,-3 -1,-3 -11,-2 -6,0 -14,2 -17,2 -4,1 -5,1 -8,-8 -2,-6 -8,-16 -13,-24 l -8,-13 7,-14 c 3,-8 6,-18 6,-22 v -6 l 5,4 5,5 6,-6 c 3,-3 7,-8 9,-10 1,-2 7,-6 12,-9 l 10,-5 -5,-7 c -3,-4 -6,-9 -6,-11 -1,-5 -7,-8 -12,-5 -2,1 -5,2 -6,2 -2,0 -4,3 -6,7 -3,6 -3,7 0,10 2,2 2,3 0,5 -3,2 -4,0 -11,-10 -4,-7 -10,-16 -13,-20 -8,-10 -7,-16 6,-22 22,-11 27,-40 11,-59 -7,-7 -19,-11 -30,-11 z m -1,2 h 2 c 16,1 32,13 36,29 3,16 -9,35 -25,39 -7,3 -8,3 -7,10 1,4 3,10 7,14 3,3 9,12 13,20 4,7 7,14 8,14 0,1 2,-1 4,-2 2,-2 5,-4 6,-4 2,0 2,-1 -1,-5 -5,-4 -5,-5 -2,-10 2,-3 3,-4 3,-3 0,2 2,2 6,-2 3,-3 5,-4 7,-2 2,2 2,3 0,7 -2,3 -2,6 0,6 1,1 1,0 1,-1 -1,-5 4,-3 7,2 3,6 3,7 1,8 -1,1 -4,2 -5,2 -2,0 -8,5 -14,12 l -11,11 -14,-15 c -8,-9 -15,-16 -16,-16 -1,0 3,5 8,11 11,11 11,12 10,21 -2,11 -11,31 -17,36 -3,3 -7,5 -11,5 -7,0 -8,1 -14,16 -6,13 -9,16 -17,21 -16,10 -16,9 -13,18 1,5 4,8 6,9 2,1 5,3 8,5 3,4 3,5 0,6 -5,4 -21,3 -26,-2 -7,-7 -11,-40 -5,-40 5,0 20,-8 27,-15 9,-8 15,-20 16,-32 0,-6 2,-16 5,-22 7,-15 10,-29 9,-49 0,-9 1,-20 1,-25 2,-8 1,-8 -7,-12 C 97,95 89,79 92,63 c 2,-8 12,-20 21,-24 4,-2 8,-3 12,-3 z m -12,84 v 8 c 0,8 0,8 -13,15 l -13,6 v 16 c 0,14 0,15 -4,15 -2,0 -4,1 -4,2 0,1 -1,2 -3,2 -1,0 -3,-1 -4,-2 0,-1 1,-2 2,-2 2,0 3,-1 3,-2 0,-1 -1,-2 -2,-2 -2,0 -3,-2 -2,-10 2,-23 3,-24 16,-33 6,-4 15,-9 18,-10 z m -1,21 2,4 c 2,7 -2,26 -8,40 -3,7 -5,13 -6,13 0,0 -1,-3 -1,-7 0,-6 -2,-8 -5,-10 -4,-2 -5,-3 -5,-16 v -14 l 12,-5 z m -26,43 h 3 c 4,0 6,1 6,2 0,3 -5,3 -11,0 -2,-1 -2,-1 2,-2 z m -15,2 c 1,0 2,1 2,3 0,1 -1,4 -1,6 -2,3 -2,3 -4,1 -2,-2 -2,-5 -1,-7 0,-2 3,-3 4,-3 z m 8,2 c 1,0 2,3 2,7 0,7 -2,9 -5,5 -3,-4 -1,-12 3,-12 z m 7,2 c 8,0 12,3 11,9 -1,6 -3,8 -10,6 -4,-1 -5,-15 -1,-15 z m 49,30 7,9 c 3,5 9,16 13,24 3,9 7,15 8,15 0,0 6,-1 12,-3 6,-2 12,-3 15,-2 4,0 4,0 -1,7 -3,3 -11,9 -18,12 -7,3 -15,6 -18,7 -5,1 -5,1 -6,-11 -2,-13 -8,-29 -17,-42 l -6,-9 6,-3 z"
       style="stroke:#000000;stroke-opacity:1;fill:#000000;stroke-width:1;stroke-miterlimit:4;stroke-dasharray:none;fill-opacity:1"
       id="walkLine1" />
    <path
       d="m 68.623245,195.44794 c -1.525852,-1.73785 -1.886531,-3.28476 -1.256321,-5.38821 0.838779,-2.7996 3.878173,-4.27008 4.646888,-2.24821 0.420021,1.10474 -0.674518,6.81491 -1.558721,8.1318 l -0.605328,0.90154 z m 8.627505,4.68726 c -0.652939,-0.74365 -1.404064,-2.00932 -1.669169,-2.8126 -1.138136,-3.44858 1.15491,-9.14692 3.342913,-8.30731 1.153657,0.4427 1.806385,7.18426 0.982706,10.14968 -0.642566,2.31337 -1.274507,2.54418 -2.65645,0.97023 z m 13.095446,-12.69372 c -2.207232,-0.53277 -5.707016,-1.81693 -5.707016,-2.09405 0,-0.84089 3.936828,-1.0457 7.092296,-0.36897 1.962839,0.42095 2.825342,1.22181 2.09857,1.94858 -0.463098,0.4631 -2.469256,0.75934 -3.48385,0.51444 z m -2.361524,17.04801 c -1.318828,-0.38785 -1.73405,-0.78219 -2.558317,-2.42967 -0.854733,-1.70837 -0.983969,-2.4886 -0.983969,-5.94045 0,-5.19016 0.183469,-5.43042 3.961644,-5.18795 3.317152,0.21288 5.777865,1.38933 7.141964,3.41451 1.562864,2.32028 0.897823,7.20647 -1.276831,9.38112 -1.073983,1.07398 -1.568125,1.28095 -2.998037,1.25569 -0.941658,-0.0166 -2.420562,-0.2386 -3.286454,-0.49325 z M 74.294766,182.5255 c -1.472922,-0.70971 -1.249257,-1.65189 0.448938,-1.89114 1.591807,-0.22426 3.103769,-1.54145 3.103769,-2.70393 0,-1.08595 -1.61496,-2.62069 -2.757671,-2.62069 -1.815882,0 -1.981235,-4.3713 -0.614622,-16.24825 1.172779,-10.19238 2.094285,-13.3197 5.145035,-17.46073 2.528634,-3.43231 14.771113,-11.50018 25.967615,-17.11282 3.47184,-1.74038 6.43399,-3.16432 6.58257,-3.16432 0.43949,0 0.26322,8.44704 -0.2297,11.00688 -0.66465,3.45172 -2.88104,5.07988 -15.093256,11.08751 l -10.613777,5.2213 -0.06201,13.46625 c -0.03411,7.40644 -0.211938,14.17384 -0.395179,15.03866 -0.29967,1.41432 -0.614448,1.62639 -3.130818,2.10931 -2.15845,0.41423 -3.116007,0.92427 -4.191021,2.23231 -1.470168,1.78886 -2.217398,1.97561 -4.159869,1.03966 z M 72.86817,298.81854 c -3.136932,-0.80939 -6.491686,-2.47966 -7.669955,-3.81872 -3.624676,-4.11934 -7.272107,-18.983 -7.26503,-29.60576 0.0037,-5.58241 0.70083,-8.23174 2.248168,-8.54402 0.63569,-0.1283 1.863385,-0.38233 2.728211,-0.56452 2.559464,-0.5392 10.940421,-4.69536 15.591857,-7.7321 15.569587,-10.16474 23.398039,-22.7278 25.303529,-40.60695 1.00085,-9.39089 2.21074,-14.23982 5.42506,-21.74224 6.90402,-16.11438 7.86071,-21.16671 8.46446,-44.70133 0.25884,-10.08964 0.75451,-21.41101 1.10149,-25.15859 0.86916,-9.38732 0.839,-10.50372 -0.31836,-11.78258 -0.5443,-0.60145 -3.52426,-2.41046 -6.62212,-4.02002 -3.09786,-1.609567 -6.93227,-4.084972 -8.52091,-5.500902 C 93.132438,85.947794 89.185687,69.395412 94.651865,58.626177 98.506899,51.031148 106.60057,42.975165 113.78778,39.579375 c 4.66345,-2.203376 7.97421,-2.818763 13.56452,-2.521304 14.26391,0.75898 28.13743,10.859551 33.64513,24.495238 4.18591,10.363284 -0.16801,24.889828 -10.26062,34.233802 -3.74475,3.466989 -6.62103,5.251149 -10.86692,6.740789 -9.65401,3.38703 -10.7853,4.79223 -9.42341,11.70501 1.02728,5.21435 3.66879,10.58562 7.22465,14.6907 4.05443,4.68064 8.60735,11.8995 14.71047,23.3241 4.20443,7.87039 5.71677,10.25825 6.57669,10.3841 1.19795,0.17531 2.82365,-0.71325 6.15802,-3.3658 1.1531,-0.91732 2.98103,-2.03415 4.06206,-2.48185 1.2965,-0.53693 1.96551,-1.15315 1.96551,-1.81038 0,-1.15285 -2.27706,-4.39681 -4.64974,-6.62413 -1.85676,-1.743 -2.0113,-2.76777 -0.77958,-5.16934 1.56018,-3.042 2.51849,-3.97801 3.50662,-3.42502 1.3327,0.74581 2.46138,0.1951 6.15391,-3.00263 3.77673,-3.27065 5.41433,-3.55784 6.74167,-1.18228 0.73175,1.30962 0.68227,1.62091 -0.726,4.56734 -2.30426,4.82106 -1.76293,7.91689 1.38432,7.91689 0.75668,0 0.94809,-0.42327 0.94809,-2.09655 0,-1.1531 0.18338,-2.09655 0.40751,-2.09655 0.57083,0 2.8664,1.62517 3.66779,2.59664 1.08163,1.31118 3.78676,6.73924 3.78676,7.59844 0,0.85437 -2.96585,2.53699 -5.50344,3.12227 -2.94664,0.67962 -6.80607,3.91997 -15.63375,13.126 -4.85098,5.05889 -9.01988,9.19798 -9.26423,9.19798 -0.24434,0 -4.63648,-4.54034 -9.76031,-10.08964 -12.06975,-13.072 -19.46913,-20.43787 -20.26473,-20.17297 -1.46412,0.48747 -0.77579,2.22726 2.59172,6.55061 1.9625,2.51955 5.6126,6.75764 8.11135,9.41798 5.3674,5.71453 6.74415,8.22659 6.74415,12.30557 0,9.05116 -9.1121,30.94402 -16.08751,38.6521 -3.63364,4.0153 -6.97226,5.67358 -12.33276,6.12565 -6.67376,0.56281 -7.55879,1.51529 -12.98393,13.97341 -6.4207,14.7443 -9.055777,17.82884 -22.031022,25.78889 -7.595451,4.65965 -10.468118,7.31108 -10.468118,9.66193 0,2.88776 2.564132,10.36258 4.356275,12.6992 1.025789,1.33743 3.506512,3.28513 6.422857,5.04278 4.047846,2.43961 7.04153,5.22754 7.04153,6.55757 0,0.19351 -1.238274,0.99341 -2.75172,1.77754 -2.432751,1.26044 -3.420035,1.44167 -8.517228,1.56348 -3.46643,0.0828 -6.810544,-0.13186 -8.386194,-0.5384 z m 76.27772,-11.314 c -0.29989,-0.56035 -0.789,-3.44965 -1.08692,-6.42068 -1.0567,-10.5382 -5.93971,-25.65727 -11.69876,-36.22239 -1.35718,-2.48977 -4.34604,-7.36986 -6.64192,-10.84464 -2.29589,-3.47477 -4.17434,-6.42624 -4.17434,-6.55881 0,-0.13258 1.12034,-0.81086 2.48965,-1.50731 1.36931,-0.69644 3.40657,-1.99765 4.52724,-2.89158 1.12067,-0.89393 2.18205,-1.61533 2.35862,-1.60311 0.60558,0.0419 6.79373,8.62587 8.86342,12.29501 4.96567,8.80313 10.20085,18.94524 11.33622,21.96166 1.58634,4.2145 3.12838,7.30297 5.19402,10.4028 1.97823,2.96865 2.29455,3.0082 9.25835,1.15744 15.01297,-3.98995 15.40097,-4.06488 19.0346,-3.67575 l 3.48689,0.37342 -2.07399,3.05409 c -2.16907,3.19409 -7.73736,7.78067 -13.66061,11.2522 -5.37594,3.15075 -22.99767,10.24647 -25.44639,10.24647 -0.67263,0 -1.46567,-0.45749 -1.76608,-1.01882 z"
       style="fill:#ffffff;fill-opacity:1;stroke:#ffffff;stroke-width:1.548;stroke-linejoin:round;stroke-miterlimit:4;stroke-dasharray:none;stroke-opacity:1;stop-color:#000000;font-variation-settings:normal;opacity:1;vector-effect:none;stroke-linecap:butt;stroke-dashoffset:0;stop-opacity:1"
       id="walkFill1" />
    <ellipse
       style="font-variation-settings:normal;opacity:1;vector-effect:none;fill:#1a1a1a;fill-opacity:1;stroke:#ffffff;stroke-width:1.548;stroke-linecap:butt;stroke-linejoin:round;stroke-miterlimit:4;stroke-dasharray:none;stroke-dashoffset:0;stroke-opacity:1;stop-color:#000000;stop-opacity:1"
       id="eye1"
       cx="155.34367"
       cy="71.789162"
       rx="3.5344286"
       ry="7.0688572" />
  </g>
  <g
     id="walk2">
    <path
       d="m 371,48 c -13,0 -21,4 -29,13 -11,12 -13,27 -5,42 3,5 16,17 20,17 1,0 3,2 3,4 2,3 -2,6 -7,6 -2,0 -35,15 -37,17 -1,1 -3,8 -5,16 -2,11 -5,17 -8,19 -2,1 -5,5 -7,9 -3,6 -3,6 3,11 8,7 26,15 29,13 3,-4 4,-25 1,-27 -2,-1 -2,-4 0,-15 l 1,-13 14,-5 13,-4 1,5 c 1,10 -3,29 -8,41 -6,13 -6,19 -4,41 1,5 1,10 0,10 -1,0 -7,-1 -15,-3 -20,-4 -19,-4 -17,8 2,13 9,29 17,38 9,10 11,7 11,-10 v -13 l 10,1 c 12,0 10,2 15,-23 2,-12 6,-11 13,2 6,11 6,11 2,18 -1,4 -6,11 -9,16 -3,5 -5,9 -5,10 1,0 9,1 19,2 18,1 40,-2 40,-6 0,-3 -8,-7 -18,-10 -5,-1 -9,-3 -9,-3 -1,0 1,-3 2,-7 5,-9 4,-14 -7,-30 l -9,-15 4,-12 c 3,-6 5,-15 5,-20 0,-7 1,-7 4,-4 7,6 13,4 27,-9 4,-3 11,-7 16,-9 5,-2 9,-4 9,-5 0,0 -2,-5 -5,-9 -2,-4 -5,-8 -5,-10 0,-1 -1,-3 -3,-5 -2,-2 -4,-2 -7,0 -2,1 -5,2 -7,2 -3,0 -9,11 -8,15 0,3 -5,11 -8,11 -1,0 -3,-3 -6,-7 -2,-4 -8,-12 -14,-18 -12,-13 -13,-18 -3,-23 11,-5 20,-15 22,-25 7,-24 -11,-47 -36,-47 z m 0,3 c 12,0 24,6 30,16 10,16 3,41 -14,49 -5,2 -10,4 -11,4 -4,0 1,17 6,21 3,2 10,10 15,17 5,7 9,14 10,14 0,1 3,-1 6,-4 3,-3 7,-6 8,-6 2,0 2,-1 0,-4 -3,-3 -3,-4 -1,-9 1,-2 3,-5 4,-5 1,0 1,1 0,2 -2,4 1,2 6,-2 3,-3 4,-4 7,-2 1,2 2,4 1,6 0,2 1,4 2,5 2,1 3,2 2,3 -1,2 -3,1 -6,-2 -5,-4 -5,-4 0,2 4,4 7,5 8,4 1,-2 1,-2 2,0 2,3 0,5 -9,8 -3,2 -9,5 -13,8 -3,3 -9,7 -13,9 l -6,4 -15,-16 c -8,-9 -15,-15 -15,-14 0,1 5,6 10,12 9,10 9,10 8,21 -2,19 -18,46 -25,41 -3,-1 -5,4 -5,13 0,4 0,11 -1,14 -1,6 -1,6 -13,6 -16,0 -17,0 -13,2 3,2 3,5 3,13 0,6 -1,11 -2,11 -3,0 -14,-17 -18,-29 -5,-16 -5,-19 0,-18 7,2 22,5 26,5 6,0 8,-12 3,-23 -3,-9 -2,-14 7,-35 5,-11 5,-16 6,-36 0,-12 1,-26 1,-29 2,-6 1,-7 -5,-10 -15,-7 -22,-17 -22,-32 0,-11 4,-18 13,-26 7,-6 15,-8 23,-8 z m -16,81 c 1,0 2,3 2,8 v 7 l -14,5 c -8,3 -14,6 -15,7 0,1 -2,7 -3,14 l -2,12 c 0,0 -4,1 -9,2 -7,1 -9,1 -9,-2 0,-2 1,-3 3,-2 2,1 3,0 3,-3 0,-2 2,-10 4,-18 l 3,-13 17,-8 c 10,-5 19,-9 20,-9 z m -54,56 c 1,0 2,1 4,2 2,1 8,4 13,6 9,3 9,4 9,9 -1,8 -3,8 -14,3 -6,-4 -8,-6 -8,-9 0,-3 0,-3 -1,-1 -3,3 -7,-2 -5,-7 0,-2 1,-3 2,-3 z m 16,1 c 3,0 9,1 10,2 v 3 c -1,2 -12,-2 -12,-4 0,0 1,-1 2,-1 z m 67,38 c 1,0 2,1 3,4 2,2 7,9 11,15 l 6,10 -4,10 -4,10 c -1,1 3,2 7,3 4,1 10,3 14,5 6,3 6,3 3,4 -4,2 -47,3 -47,1 0,0 4,-6 7,-13 4,-7 7,-15 7,-17 0,-2 -2,-9 -6,-14 -5,-11 -5,-11 -1,-15 2,-2 3,-3 4,-3 z"
       style="stroke:#000000;stroke-opacity:1;fill:#000000;stroke-width:1;stroke-miterlimit:4;stroke-dasharray:none;fill-opacity:1"
       id="path54889" />
    <path
       d="m 321.85552,192.84819 c -1.57396,-0.56347 -4.63579,-1.60686 -5.53472,-2.1722 -1.38605,-0.8717 0.0571,-0.40684 3.85336,-0.40522 7.38314,0.003 5.99791,1.34976 6.17187,2.67367 0.2085,1.58682 -0.74385,1.24503 -4.49051,-0.0962 z m -4.50701,16.21073 c -6.52081,-2.69497 -11.34796,-7.05677 -11.51095,-10.76769 -0.13745,-3.12931 -0.95146,-3.28297 -2.39495,-1.30889 -1.58926,2.17344 -4.24788,0.0269 -4.28725,-3.84493 -0.0429,-4.22346 1.53126,-5.24448 4.94084,-2.59127 1.34385,1.04573 6.31844,3.16725 10.81307,5.06371 9.84501,4.15401 10.9766,3.88054 10.9745,7.52084 -0.004,6.30792 -0.9547,9.06117 -8.53526,5.92823 z m 62.32431,79.89891 C 377.08841,288.79565 373,289 374.97389,288.32745 c 0.17467,-0.0595 1.96768,-4.11942 4.37262,-8.74418 6.41686,-12.3398 8.94581,-19.11446 8.34028,-22.34225 -0.27655,-1.4741 -2.51221,-6.66468 -4.96814,-11.53462 -2.45593,-4.86994 -4.46771,-9.60972 -4.47063,-10.53284 -0.86575,-2.11064 5.74455,-8.17604 6.23322,-6.65657 0.12921,0.40176 0.94748,1.24541 1.44235,2.10442 0.49488,0.85902 3.12245,4.63489 5.83905,8.39083 2.7166,3.75595 6.33804,9.14274 8.04765,11.97065 l 3.10839,5.14166 -4.06465,10.09229 c -2.23555,5.55076 -3.82621,10.47808 -3.53479,10.9496 0.29141,0.47153 3.42407,1.81779 7.04927,2.64067 9.885,2.24379 22.14444,5.96235 18.63757,7.45684 -13.36328,5.69488 -34.95317,2.56411 -36.22572,2.12858 -0.22473,-0.0769 -2.52312,-0.27253 -5.10754,-0.4347 z M 306.32861,185.10094 c -1.58066,0 0.0579,-2.38134 2.41415,-1.13856 2.3736,1.25196 2.37201,0.96998 4.09817,-8.40084 0.49676,-2.69678 2.08471,-9.63688 3.52879,-15.42244 l 2.62558,-10.51921 16.05733,-7.62735 c 8.83153,-4.19504 18.34976,-8.64684 19.45763,-8.9249 2.42839,-0.60948 1.63987,1.73174 1.65674,8.68172 l 0.0112,4.59649 -7.55915,2.62567 c -8.5914,2.98423 -20.55989,8.39439 -21.33123,9.64245 -0.28391,0.45937 -1.92802,5.86307 -2.64567,12.16022 -0.71311,6.25738 -2.05485,10.84523 -2.22008,12.53292 -0.35278,3.60354 -8.64716,2.57487 -13.4375,3.25105 -2.03631,0.28744 -4.3894,-1.45722 -2.65592,-1.45722 z m 28.05004,103.43929 c -4.75183,-5.28166 -11.98858,-18.59267 -14.80923,-27.23954 -2.55163,-7.82219 -3.80019,-14.19468 -2.9481,-15.04677 0.46658,-0.46659 3.07089,-0.16375 6.76628,0.7868 3.30426,0.84993 9.68603,2.163 14.18171,2.91792 7.96205,1.337 8.22979,1.33121 10.32689,-0.22316 4.20305,-3.11533 4.85011,-10.96094 1.73655,-21.05557 -3.33041,-10.79766 -3.00403,-13.12483 4.47193,-31.88611 2.90037,-7.27861 5.64911,-15.58568 6.10831,-18.46014 0.45919,-2.87446 1.21012,-14.78702 1.66872,-26.47236 0.45861,-11.68534 1.05516,-23.13695 1.32568,-25.44803 0.27052,-2.31107 0.26222,-4.92548 -0.0184,-5.80979 -0.29404,-0.92644 -3.34287,-3.12844 -7.19411,-5.19591 -14.7807,-7.93475 -21.42703,-19.270085 -19.86286,-33.876156 0.7226,-6.747471 3.36436,-12.091807 8.97009,-18.146664 13.39181,-14.464757 35.56456,-15.302717 49.75666,-1.880419 6.29093,5.949695 8.92313,11.745214 9.37131,20.633534 0.44184,8.762308 -1.55553,16.151543 -6.13947,22.712855 -4.13747,5.92226 -8.64276,9.20475 -16.98084,12.372 -4.43379,1.68419 -7.0989,3.16681 -7.40045,4.11693 -1.18526,3.73443 4.477,18.33938 8.01288,20.66801 2.74899,1.81041 11.4931,12.37876 18.09387,21.8687 3.8492,5.53399 6.44678,8.50209 7.5848,8.66669 1.16109,0.16794 3.411,-1.24892 6.83564,-4.30467 2.80769,-2.50525 5.97062,-4.77229 7.02873,-5.03786 2.394,-0.60086 2.51775,-3.17736 0.28943,-6.02611 -0.87894,-1.12366 -1.63012,-1.48245 -2.11769,-2.49483 -2.08237,-4.32381 4.57107,-12.02293 4.32033,-9.70432 -0.50108,4.63344 2.06348,4.70435 5.95483,0.42745 4.85969,-5.34118 7.70913,-4.34687 7.70913,0.90266 0,3.53105 0.52265,7.06506 2.85702,8.14631 1.05214,0.48734 0.99274,1.10932 0.81057,1.43947 -0.33458,0.60636 -2.13407,-0.65648 -4.08475,-2.37687 -5.72952,-5.05311 -7.4881,-3.69291 -2.70073,1.90005 3.35109,3.915 8.22513,7.58925 9.41048,5.58457 2.06441,-3.49135 2.89298,0.0156 1.69015,1.62074 -0.45433,0.60628 -3.57338,2.50749 -7.56013,4.20325 -3.92395,1.66905 -10.28613,5.68396 -14.3011,8.5602 -4.01497,2.87623 -9.80752,6.8081 -12.87234,8.73749 l -5.57238,3.508 -8.25029,-8.89374 c -11.35264,-12.23806 -20.18879,-20.74322 -21.55044,-20.74322 -2.32965,0 -0.94625,2.28003 6.69811,11.03944 10.26843,11.76623 10.44593,12.13756 9.93682,20.78815 -0.53004,9.00643 -4.40187,20.801 -9.76913,29.75921 -5.58563,9.32268 -6.88888,13.03536 -13.4868,12.73837 -5.32403,-0.23965 -5.94136,2.20098 -6.76809,16.64662 -0.66281,11.58154 -1.16219,14.32827 -2.8102,15.45674 -0.48225,0.33021 -6.27932,0.60602 -12.88237,0.6129 -12.66982,0.0132 -14.76816,0.62502 -11.42588,3.33143 0.96436,0.7809 2.29945,1.53338 2.75499,2.73154 1.40014,3.68264 0.61026,19.28292 -0.94398,19.28292 -0.31231,0 -1.31225,-0.82742 -2.2221,-1.83871 z"
       style="fill:#ffffff;fill-opacity:1;stroke:#ffffff;stroke-width:1.548;stroke-linejoin:round;stroke-miterlimit:4;stroke-dasharray:none;stroke-opacity:1;stop-color:#000000;font-variation-settings:normal;opacity:1;vector-effect:none;stroke-linecap:butt;stroke-dashoffset:0;stop-opacity:1"
       id="walkFill2"
       sodipodi:nodetypes="sssssssssssssssssscsssscsssssssssscssscsssssssssssssssssssssssssssssssssssssssssssssscsssssssssssssss" />
    <ellipse
       ry="7.0688572"
       rx="3.5344286"
       cy="85.959335"
       cx="396.74326"
       id="eye2"
       style="font-variation-settings:normal;opacity:1;vector-effect:none;fill:#1a1a1a;fill-opacity:1;stroke:#ffffff;stroke-width:1.548;stroke-linecap:butt;stroke-linejoin:round;stroke-miterlimit:4;stroke-dasharray:none;stroke-dashoffset:0;stroke-opacity:1;stop-color:#000000;stop-opacity:1" />
  </g>
  <g
     id="walk3">
    <path
       d="m 615,33 c -5,0 -10,1 -15,3 -28,13 -30,50 -3,66 8,4 9,5 7,10 0,3 -1,9 -2,13 0,5 -3,15 -7,24 l -8,15 4,8 c 4,7 4,8 1,15 -3,9 -3,21 0,26 2,2 3,8 3,12 0,7 0,7 -6,6 -6,-1 -6,-1 -5,3 1,3 3,8 5,12 2,6 2,7 -2,15 -2,4 -7,12 -11,18 -4,5 -7,10 -7,11 0,1 3,2 6,3 18,3 53,0 53,-5 0,-1 -3,-3 -5,-5 -4,-3 -5,-6 -6,-15 v -11 l 6,-1 c 17,-4 19,-6 18,-13 -1,-3 -4,-10 -7,-16 -4,-5 -5,-9 -4,-8 2,0 5,-1 6,-3 3,-3 3,-5 2,-12 -2,-6 -1,-10 1,-17 5,-13 2,-31 -7,-52 -9,-21 -10,-29 -6,-29 2,0 6,-2 11,-5 18,-11 23,-35 11,-51 -8,-12 -20,-18 -33,-17 z m 2,2 c 7,0 16,3 23,9 12,10 15,26 7,42 -4,9 -17,18 -26,18 -3,0 -4,1 -2,3 1,1 2,4 2,5 0,2 3,10 6,17 10,21 13,38 10,52 -2,12 -4,15 -9,11 -1,-1 -3,-2 -4,-1 -1,1 -6,-5 -10,-12 -8,-14 -8,-15 5,-35 3,-5 4,-8 2,-6 -5,4 -16,23 -16,27 0,2 4,9 7,16 6,10 7,13 5,15 -2,2 -2,2 0,2 1,0 3,-1 3,-2 2,-3 9,-2 12,2 4,4 4,4 0,3 -3,-1 -3,-1 2,5 4,5 4,7 1,8 -4,3 -5,3 -8,-1 -2,-3 -2,-3 1,-5 1,-1 2,-2 0,-2 -3,0 -13,10 -12,12 1,0 3,-1 4,-3 2,-2 4,-3 5,-2 1,1 0,3 -2,4 -7,5 -11,4 -13,-2 0,-3 -4,-14 -8,-24 -4,-10 -8,-20 -9,-23 -2,-4 -1,-8 7,-23 4,-10 9,-19 9,-20 1,-1 0,-1 -2,0 -2,1 -2,0 -1,-5 3,-14 3,-14 -6,-20 -12,-6 -17,-13 -19,-25 -3,-23 16,-40 36,-40 z m -21,148 4,9 c 2,5 5,13 7,19 1,5 1,9 1,9 -5,0 -11,-4 -13,-8 -4,-6 -4,-10 -1,-21 z m 5,37 c 3,0 8,7 8,11 0,3 -6,5 -8,2 -2,-2 -2,-13 0,-13 z m 22,1 c 3,0 5,3 9,10 9,15 9,16 -2,20 -5,1 -12,3 -15,4 -5,1 -5,2 -3,5 2,2 3,5 3,10 -1,10 -4,10 -12,-1 -6,-8 -16,-30 -16,-35 0,-1 5,0 11,1 10,3 18,4 22,3 1,0 -1,-3 -4,-7 l -5,-6 7,-3 c 2,0 4,-1 5,-1 z m -10,11 c 2,0 2,1 2,2 0,1 0,2 -2,2 -1,0 -2,-1 -2,-2 0,-1 1,-2 2,-2 z m -21,24 4,6 c 2,4 3,9 3,11 -1,4 -1,5 4,6 4,1 10,3 14,4 7,3 7,4 3,5 -4,2 -47,3 -47,1 0,0 3,-5 7,-11 4,-5 8,-12 9,-16 z"
       style="stroke:#000000;stroke-opacity:1;fill:#000000;stroke-width:1;stroke-miterlimit:4;stroke-dasharray:none;fill-opacity:1"
       id="walkLine3" />
    <path
       sodipodi:nodetypes="sssscssssssscsssssssssssssscccsssssssssssssssssssssssssscsssssssssssssssssssssssscssscssccscsssssssssssssssssssssssssssssssssscsscsssssssssscsscscssssssscsssssssssscssssss"
       d="m 580.53987,289.38612 c -3.50716,-0.11638 -6.36884,-0.37854 -6.59441,-0.60412 -0.15543,-0.15543 6.15772,-9.97872 7.41979,-11.54523 2.57229,-3.19279 6.25871,-9.64915 7.67755,-13.44639 0.63472,-1.6987 2.89639,-6.41767 3.07234,-6.41046 0.2313,0.009 3.56606,5.31611 4.01768,6.39337 0.78885,1.88164 1.70056,5.06504 2.03045,7.08966 0.27846,1.70899 0.27946,1.92427 0.0143,3.09004 -0.79452,3.49322 -0.0546,4.43882 4.35204,5.56191 1.34737,0.34339 4.41831,1.20639 6.82433,1.91777 2.40601,0.71138 5.12262,1.49986 6.03691,1.75217 1.87743,0.51811 5.66377,2.29948 6.27856,2.95389 l 0.40616,0.43234 -0.49889,0.25143 c -2.80749,1.41493 -10.55446,2.16783 -26.48384,2.57387 -7.34296,0.18717 -8.63107,0.18626 -14.55298,-0.0102 z m 33.48308,-70.05149 c -1.97279,-0.68136 -2.7452,-2.01696 -4.4832,-7.75203 -1.86953,-6.16913 -3.89077,-11.71987 -9.89518,-27.17424 -6.23799,-16.05556 -6.83704,-17.78453 -6.96201,-20.09362 -0.12369,-2.28533 0.38905,-3.93056 3.20444,-10.28217 1.46866,-3.31335 8.16675,-17.66584 10.2818,-22.03157 1.31999,-2.72465 3.44763,-7.44142 3.44763,-7.64309 0,-0.0594 -0.66392,-0.14059 -1.44361,0.0267 -2.66171,0.5711 -2.49799,0.64642 -2.46264,-0.54129 0.0118,-0.39669 0.11844,-1.04612 0.22548,-1.44361 v 0 l 8.98174,-0.72271 h 8.78714 l 1.55264,3.89337 c 0.85396,2.14135 1.89741,4.62262 2.31879,5.51393 1.86146,3.9374 4.4671,10.62727 6.15441,15.80114 2.58534,7.92756 3.8833,15.56265 3.8833,22.84293 0,10.61298 -2.66585,22.02399 -5.4109,23.16103 -0.74823,0.30993 -1.44521,0.13407 -3.53747,-0.89256 -0.99719,-0.4893 -2.52175,-1.06628 -3.38792,-1.28219 -2.76273,-0.68867 -3.69434,-1.38648 -5.99931,-4.49371 -4.07973,-5.4997 -8.28618,-12.87283 -9.70295,-17.00747 -0.48663,-1.42016 -0.55068,-1.83352 -0.56029,-3.61577 -0.0214,-3.97303 1.22798,-6.79562 7.93915,-17.93575 3.80302,-6.31278 5.34965,-9.52713 4.91922,-10.22358 -0.2903,-0.46971 -2.87832,2.16331 -5.29077,5.38276 -3.11711,4.15984 -6.10263,9.13557 -8.88915,14.81485 -1.97135,4.01786 -2.7693,5.87851 -2.92044,6.80989 -0.19106,1.17734 1.64433,5.38758 7.82513,17.95018 2.48589,5.05263 4.64883,9.58989 4.80652,10.0828 0.37773,1.18065 0.18048,1.90959 -0.98265,3.63127 -0.98031,1.45107 -1.03968,1.91555 -0.25628,2.00511 0.94825,0.10841 2.08123,-0.37919 4.27597,-1.84026 2.99205,-1.99185 3.50591,-2.1126 5.76741,-1.3553 2.85959,0.95757 5.55972,2.7356 6.5826,4.33463 0.32287,0.50472 0.71314,1.02234 0.86727,1.15025 0.15412,0.12791 0.69522,0.71667 0.69522,0.80113 0,0.24704 -1.06697,-0.23849 -1.34398,-0.51549 -0.19622,-0.19623 -0.5376,-0.23028 -1.49985,-0.14961 l -1.24581,0.10444 v 0.72931 c 0,0.58634 0.10554,0.83006 0.53832,1.24325 1.39033,1.32738 5.91733,7.81316 5.95678,8.5342 0.0417,0.76173 -0.0509,0.9221 -1.1052,1.91488 -1.5101,1.42196 -3.35847,2.31366 -4.79588,2.31366 -0.94806,0 -1.17215,-0.0681 -1.75891,-0.53445 -0.81074,-0.64438 -3.38466,-4.0231 -3.38466,-4.44295 0,-0.16416 0.52904,-0.72562 1.17564,-1.24768 1.68107,-1.35731 2.499,-2.24149 2.499,-2.70143 0,-1.09178 -2.36522,-0.60587 -4.81203,0.98858 -3.3573,2.18777 -7.82874,7.16032 -8.52328,9.4785 -0.19197,0.64072 -0.17728,0.71698 0.19642,1.01958 0.42024,0.34029 1.24006,0.44832 1.24006,0.16341 0,-0.09 0.26181,-0.25833 0.5818,-0.37404 0.32,-0.11571 0.76174,-0.47298 0.98166,-0.79392 0.61531,-0.89799 3.05313,-3.15576 3.84193,-3.55817 0.92577,-0.4723 1.44428,-0.45405 1.93479,0.0681 0.54991,0.58536 0.38064,1.13874 -0.65245,2.13295 -1.08729,1.04637 -3.4733,2.62833 -4.48326,2.97245 -0.44231,0.15071 -0.84831,0.34539 -0.90222,0.43263 -0.0539,0.0872 -0.30992,0.1611 -0.5689,0.16416 -0.25899,0.003 -0.62373,0.12118 -0.81054,0.26248 -0.47443,0.35884 -2.24669,0.31918 -3.39052,-0.0759 z m -9.14358,-0.21113 c -4.57915,-1.53145 -8.43386,-5.02096 -10.82023,-9.7951 -1.78348,-3.568 -2.03119,-7.37115 -0.86521,-13.28368 0.69408,-3.51955 2.46565,-10.681 2.70387,-10.93018 0.21502,-0.22491 0.27702,-0.22415 0.50739,0.006 0.35228,0.35228 2.57137,5.42898 4.19662,9.42511 4.44778,10.93609 8.36307,24.10655 7.21193,24.85606 -0.76652,0.49908 -0.93726,0.38949 -2.93437,-0.27843 z m -1.99978,14.55378 c -1.89947,-0.69373 -2.70918,-3.02856 -2.71122,-7.81784 -10e-4,-3.18396 0.38978,-5.22963 0.99992,-5.22963 0.97313,0 3.16824,1.88462 4.58911,3.93998 1.6842,2.43627 2.87479,5.57638 2.5719,6.7832 -0.42743,1.70299 -3.52898,3.0258 -5.44971,2.32429 z m 7.78674,42.74331 c -1.72068,-0.82698 -6.21403,-6.07137 -9.09031,-10.60971 -3.22132,-5.08276 -7.81131,-14.22222 -10.73911,-21.3834 -1.92477,-4.70785 -3.49337,-9.81897 -3.12613,-10.18621 0.4024,-0.4024 8.46284,0.92241 12.98152,2.13363 7.56684,2.02827 13.95997,2.9193 17.73966,2.47242 1.7961,-0.21235 2.38337,-0.51018 2.38337,-1.20869 0,-1.07424 -2.67587,-5.03007 -6.52164,-9.64116 -1.23571,-1.48163 -2.83515,-2.74868 -2.75768,-2.81567 0.32823,-0.28382 6.71643,-2.62717 7.08297,-2.62717 0.2209,0 1.18761,-0.17261 2.13017,-0.44894 2.87428,-0.84264 3.53557,-0.60445 5.07307,0.83591 1.42253,1.33265 2.40884,2.79588 6.77975,10.24869 5.65058,9.63475 6.33484,11.94281 4.13094,13.93391 -1.49228,1.34818 -5.50237,2.98459 -9.53071,3.8892 -1.53984,0.34579 -4.84702,1.21743 -7.34927,1.93698 -2.50226,0.71954 -5.21887,1.48651 -6.03691,1.70438 -2.67429,0.71222 -3.45293,1.2471 -3.61822,2.48553 -0.0719,0.53834 0.0329,0.90865 0.5222,1.8466 0.33664,0.64527 0.92622,1.5508 1.31017,2.0123 0.38395,0.4615 0.86895,1.18011 1.07777,1.59692 1.78446,3.56184 1.52667,11.52883 -0.44053,13.61468 -0.65041,0.68963 -0.93962,0.71995 -2.00108,0.2098 z m 2.11319,-58.40613 c -0.66479,-0.66479 -1.51792,-2.41056 -1.89585,-3.8795 -1.51883,-5.90339 -4.757,-14.93321 -11.24479,-31.35666 -5.87963,-14.88394 -6.7646,-17.58759 -6.45822,-19.73024 0.39957,-2.79438 1.83587,-6.1318 10.79779,-25.09008 3.45699,-7.31303 6.28545,-13.56453 6.28545,-13.89222 0,-0.32961 -0.93243,-0.4445 -2.08698,-0.25714 l -1.94424,0.42431 -0.27221,-2.30088 c -0.27286,-2.30645 1.9998,-8.1816 2.21487,-10.77632 l -0.1769,-4.47425 -1.62089,-2.66402 c -0.93297,-1.5334 -5.20977,-2.94512 -8.06259,-4.635498 -11.97922,-7.098016 -17.97778,-16.641899 -17.97778,-29.131437 0,-9.180579 3.76529,-17.245246 10.44662,-23.937091 6.91693,-6.927818 16.40622,-11.404395 26.0154,-11.404395 9.03682,0 18.53628,4.757051 25.43416,11.629676 10.38597,10.347928 11.81243,24.424854 4.39377,39.57575 -4.16634,8.508765 -17.22788,17.205885 -25.50425,17.205885 -1.34203,0 -2.97182,1.14212 -2.97182,1.14212 -0.56306,-0.93197 -0.80546,0.98898 1.01735,3.24074 1.32754,1.63994 1.34384,3.96197 1.34729,4.59445 0.57427,1.79313 3.8883,12.00266 7.28376,20.64551 5.83577,14.85442 9.25834,25.86005 9.28154,36.87865 0.0224,10.63529 -2.91579,22.71582 -5.52256,22.70631 -0.61664,-0.002 -1.95914,-0.55905 -2.98332,-1.23735 -1.02419,-0.67829 -2.619,-1.2351 -3.54402,-1.23734 -1.01856,-0.002 -2.33018,-0.67729 -3.32576,-1.71107 -2.40068,-2.4928 -7.42926,-10.26216 -9.97222,-15.40748 -3.87778,-7.84617 -3.23385,-10.60306 5.89083,-25.22042 4.5722,-7.32446 6.0121,-11.04698 4.27307,-11.04698 -2.25904,0 -10.12069,11.05036 -15.01328,21.10273 -1.55487,3.19465 -2.82703,6.33364 -2.82703,6.97552 0,1.37252 5.40196,13.18 9.8726,21.57929 1.72627,3.24326 3.14403,6.43748 3.15059,7.09827 0.007,0.66078 -0.576,1.82723 -1.29456,2.5921 -2.85753,3.04171 1.4537,3.81335 4.81526,0.86186 1.16648,-1.02419 2.73964,-1.85603 3.4959,-1.84853 1.92312,0.0191 6.11132,2.03601 7.52324,3.62302 1.1757,1.32151 1.17304,1.3291 -0.46554,1.3291 -1.21749,0 -1.648,0.31474 -1.648,1.20481 0,0.66264 0.25824,1.36441 0.57388,1.55949 1.07396,0.66374 6.25403,7.9073 6.25403,8.74533 0,0.45892 -1.16829,1.53108 -2.59619,2.38257 -2.9657,1.76853 -3.96045,1.51832 -6.14161,-1.54484 l -1.3755,-1.93171 1.95305,-1.5285 c 2.11883,-1.65822 2.49408,-2.96024 1.01659,-3.52721 -2.2232,-0.85312 -7.52053,2.74269 -11.54958,7.83982 -2.75467,3.48492 -3.06683,5.2092 -1.0146,5.60448 1.00997,0.19453 0.83813,0.2924 -0.62072,0.35353 -1.26033,0.0528 -2.4709,-0.36903 -3.22603,-1.12416 z"
       style="fill:#ffffff;fill-opacity:1;stroke:#ffffff;stroke-width:1.548;stroke-linejoin:round;stroke-miterlimit:4;stroke-dasharray:none;stroke-opacity:1;stop-color:#000000;font-variation-settings:normal;opacity:1;vector-effect:none;stroke-linecap:butt;stroke-dashoffset:0;stop-opacity:1"
       id="walkFill3" />
    <ellipse
       ry="7.0688572"
       rx="3.5344286"
       cy="69.337585"
       cx="643.88965"
       id="eye3"
       style="font-variation-settings:normal;opacity:1;vector-effect:none;fill:#1a1a1a;fill-opacity:1;stroke:#ffffff;stroke-width:1.548;stroke-linecap:butt;stroke-linejoin:round;stroke-miterlimit:4;stroke-dasharray:none;stroke-dashoffset:0;stroke-opacity:1;stop-color:#000000;stop-opacity:1" />
  </g>
  <g
     id="walk4">
    <path
       d="m 871,19 c -22,-1 -42,19 -39,42 2,12 8,20 19,27 7,4 10,8 10,10 0,3 -7,11 -19,23 l -19,18 2,21 c 2,16 2,24 0,32 -3,12 -1,14 10,14 3,0 6,1 6,2 0,3 -20,31 -32,45 l -12,13 4,10 c 3,5 7,11 9,14 4,4 5,5 20,3 19,-1 23,-3 15,-10 -3,-3 -7,-5 -9,-5 -2,0 -6,-1 -7,-4 -4,-3 -3,-4 7,-20 6,-9 14,-22 18,-29 5,-10 8,-13 12,-14 6,-1 17,4 17,8 0,0 -3,2 -8,3 -11,4 -12,5 -10,10 9,17 45,41 44,30 0,-4 -7,-19 -9,-21 -5,-2 -3,-6 5,-11 5,-3 8,-6 8,-8 0,-1 -6,-8 -13,-15 l -13,-13 3,-9 c 4,-8 4,-8 12,-7 5,0 10,2 12,3 8,6 13,4 18,-6 2,-5 4,-13 5,-18 1,-7 0,-8 -4,-9 -5,-2 -18,0 -21,3 -1,1 -2,3 -1,5 1,2 -1,2 -7,2 -6,-1 -8,-2 -8,-6 -1,-7 -9,-30 -14,-40 -4,-8 -4,-20 -1,-20 1,0 6,-3 11,-6 24,-16 21,-52 -6,-64 -5,-2 -10,-3 -15,-3 z m 0,2 c 8,0 16,3 22,9 13,10 16,28 8,43 -5,8 -18,17 -26,17 -3,0 -4,1 -2,2 1,0 2,4 3,8 1,4 4,15 9,25 6,16 7,20 7,34 0,13 0,18 -5,27 l -5,10 6,3 c 9,6 21,19 21,23 0,2 -3,6 -11,10 -8,4 -10,6 -7,6 3,0 6,3 9,9 3,5 5,10 5,12 -1,5 -16,-3 -27,-16 -11,-11 -13,-15 -7,-16 2,-1 7,-3 11,-5 l 8,-3 -9,-6 c -6,-4 -11,-5 -17,-5 h -9 l 1,-9 c 1,-9 -1,-16 -5,-19 -1,-1 -1,-4 2,-8 4,-8 8,-25 8,-32 0,-3 2,-6 3,-7 2,-1 3,-2 3,-3 0,-2 -14,6 -24,13 l -4,3 3,17 c 3,15 3,16 0,19 -3,2 -3,3 2,2 4,-1 6,0 8,3 4,5 4,8 1,6 -2,-1 -2,0 -1,5 2,8 -4,11 -8,5 -2,-3 -3,-3 -4,-1 -1,2 -12,2 -14,0 0,-1 1,-5 2,-10 1,-6 1,-16 0,-30 l -2,-22 14,-14 c 8,-7 18,-15 21,-18 4,-2 6,-4 5,-4 -2,0 -3,-2 -3,-6 0,-6 -1,-8 -8,-11 -5,-2 -11,-7 -14,-12 -7,-10 -8,-27 -1,-37 8,-11 19,-17 31,-17 z m -13,115 c 2,0 -1,17 -5,28 -2,6 -5,10 -5,10 -1,0 -3,-4 -3,-9 -1,-5 -2,-11 -3,-13 -1,-4 1,-6 7,-10 5,-3 9,-6 9,-6 z m 71,14 c 7,0 8,3 4,10 -2,4 -10,6 -13,2 0,-1 0,-4 1,-7 1,-4 2,-5 8,-5 z m -14,2 c 2,0 2,2 2,5 0,2 -1,6 -2,7 -1,2 -2,1 -2,-4 0,-4 1,-8 2,-8 z m -10,10 c 4,0 6,1 6,3 0,2 1,3 3,4 2,0 0,7 -3,7 -1,0 -2,-1 -2,-3 0,-3 0,-3 -2,-1 -3,4 -12,3 -12,-1 0,-6 3,-9 10,-9 z m 23,5 c 3,0 3,0 3,2 0,2 -2,3 -7,3 -9,0 -8,-4 1,-5 z m -3,7 c 3,0 3,1 1,5 0,2 -2,3 -2,3 -10,-2 -11,-6 -2,-7 1,-1 3,-1 3,-1 z m -83,23 c -2,0 -6,0 -9,1 -4,1 -4,2 -1,2 3,0 7,-1 9,-2 4,-1 5,-1 1,-1 z m 10,12 c 1,0 2,1 3,1 2,1 1,5 -7,18 -5,10 -13,23 -18,30 l -9,13 5,4 c 2,3 6,5 7,5 2,0 6,2 8,3 4,3 4,4 2,5 -1,1 -9,2 -16,2 -13,0 -14,0 -18,-6 -2,-3 -5,-8 -6,-12 -2,-5 -1,-6 9,-18 6,-6 15,-18 20,-26 6,-8 11,-15 11,-16 2,-2 6,-3 9,-3 z"
       style="stroke:#000000;stroke-opacity:1;fill:#000000;stroke-width:1;stroke-miterlimit:4;stroke-dasharray:none;fill-opacity:1"
       id="walkLine4" />
    <path
       sodipodi:nodetypes="ssssssssscsssssssssssssssssssssssssssssssssssssssssssssssssssssssscsscssssssscssssssssssssssssssscsssssssssssssssssssssssssssssssssssssssssssss"
       d="m 813.92247,288.8189 c -1.87506,-1.45451 -2.10526,-1.79297 -4.20753,-4.92008 -4.25471,-6.32885 -7.14979,-13.19962 -6.76635,-16.05833 0.30399,-2.26646 3.32539,-6.26164 13.94477,-18.4391 3.98369,-4.56819 8.87985,-11.03725 13.55857,-17.91431 1.82715,-2.68566 4.92817,-7.08039 6.89114,-9.76605 1.96296,-2.68566 4.06705,-5.73279 4.67575,-6.7714 1.70926,-2.91648 2.645,-3.7212 5.2698,-4.53192 2.85805,-0.88276 4.39115,-0.91733 6.41444,-0.14463 l 1.53237,0.58522 -0.1713,1.51984 c -0.20704,1.83679 -2.23395,6.0942 -6.39114,13.42417 -1.70827,3.01204 -4.40002,7.81264 -5.98167,10.668 -4.18997,7.56419 -8.68416,14.65512 -16.01303,25.2654 -3.56743,5.1647 -6.34874,9.50644 -6.18069,9.64832 0.16804,0.14188 1.16879,0.94239 2.22387,1.77891 1.05508,0.83653 2.72008,2.33719 3.69999,3.33481 2.24634,2.28692 4.42143,3.56748 7.13463,4.20042 4.24433,0.99014 10.09262,4.39981 10.09262,5.88421 0,0.63409 -1.04189,0.74948 -3.42404,1.90306 -3.53971,1.71414 -24.21829,1.94998 -26.3022,0.33346 z M 921.6027,180.76145 c -3.09773,-0.86911 -5.05741,-2.04426 -5.05741,-3.03274 0,-0.61699 1.56097,-1.38829 3.67565,-1.81618 0.9518,-0.19259 2.35842,-0.58385 3.12581,-0.86946 1.75304,-0.65245 3.42758,-0.67492 3.42758,0.25169 0,0.36895 -0.40585,1.51963 -0.76229,2.23136 -0.35645,0.71173 -0.75068,1.72115 -0.87609,2.24315 -0.34602,1.44037 -1.14056,1.66348 -3.53325,0.99218 z m -1.62941,-9.7815 c -1.61098,-0.48637 -1.7867,-0.71113 -1.1264,-1.44074 0.82443,-0.91099 3.56501,-1.67013 6.97581,-1.93231 3.6272,-0.27881 4.67408,-0.0369 4.67408,1.08017 0,1.83816 -2.05594,2.64548 -6.62696,2.60225 -1.63058,-0.0154 -3.38402,-0.15463 -3.89653,-0.30937 z m -9.86079,3.75156 c -0.30265,-0.43208 -0.54296,-1.4938 -0.54296,-2.3988 0,-1.0398 -0.19407,-1.78468 -0.5397,-2.07153 -0.45716,-0.37941 -0.76387,-0.22844 -2.00553,0.98714 -1.89291,1.85317 -3.53738,2.51457 -6.25045,2.5139 -2.65509,-6.6e-4 -4.48152,-0.80612 -4.96075,-2.1877 -0.42393,-1.22218 0.24025,-4.61012 1.14367,-5.83387 1.64173,-2.22382 5.03489,-3.35077 9.19313,-3.05325 2.97745,0.21304 3.95067,0.82543 4.2459,2.67172 0.24046,1.5037 2.1756,3.75832 3.33643,4.12675 1.36451,0.43308 0.0293,4.19738 -1.79413,5.4746 -1.01823,0.71319 -1.17991,0.69292 -1.82561,-0.22896 z m 3.87279,-10.58884 c -0.47736,-0.46991 -0.28353,-8.04221 0.30639,-9.80447 0.88736,-2.65081 1.47732,-1.86551 2.00706,-1.01398 0.41443,0.66618 -0.0635,5.96954 -0.56024,7.58466 -0.56076,1.82337 -1.40383,3.57771 -1.75321,3.23379 z m 9.17596,-0.82297 c -2.0165,-0.61266 -2.62086,-0.62936 -2.62086,-2.50856 0,-2.04598 1.3587,-7.30525 2.16053,-8.52899 0.79443,-1.21245 2.71959,-1.73986 6.73024,-1.60119 3.1937,0.11043 3.54118,0.31899 4.38677,1.10819 0.82731,0.77215 0.91261,1.05805 0.74503,2.49743 -0.28826,2.47597 -2.39975,6.38163 -4.03516,7.46389 -2.38808,1.58036 -5.29311,2.19919 -7.36655,1.56923 z m -23.3313,95.888 c -5.20142,-1.87063 -11.36391,-6.37997 -18.30736,-13.39623 -9.907,-10.01089 -13.2256,-14.19269 -13.02836,-16.41712 0.0817,-0.92134 0.30115,-1.1142 1.83672,-1.61421 0.95917,-0.31232 4.33369,-1.73919 7.49893,-3.17083 3.16525,-1.43163 7.44134,-3.21651 9.50243,-3.96638 2.06109,-0.74988 3.746,-1.44189 3.74426,-1.5378 -0.002,-0.0959 -2.82505,-2.03345 -6.274,-4.30561 -9.58824,-6.31672 -11.92041,-7.09126 -22.40653,-7.44144 -6.34165,-0.21177 -6.6617,0.12588 -6.6551,-0.58341 0.004,-0.40229 0.35974,-3.13827 0.64183,-5.6321 0.63058,-5.5746 0.63545,-8.29729 0.0209,-11.68438 -0.70585,-3.89031 -1.75008,-6.29847 -3.6948,-8.52081 -1.22145,-1.39582 -1.73563,-2.28123 -1.73563,-2.98871 0,-0.55292 0.85008,-2.62617 1.88907,-4.60722 4.11343,-7.84312 7.91332,-22.0578 8.76755,-32.79782 0.27455,-3.45182 1.45953,-5.90341 3.64366,-7.53831 2.54866,-1.90777 3.1093,-3.89329 1.09625,-3.88234 -1.17629,0.006 -6.83816,2.73844 -11.55987,5.57802 -8.13203,4.89052 -16.39301,10.58312 -16.39301,11.29634 0,0.46513 2.20511,12.86454 3.6921,20.76087 1.60708,8.53396 1.8104,11.03732 1.03004,12.6818 -0.33082,0.69716 -1.30182,1.84144 -2.15778,2.54283 -1.10601,0.90629 -1.52552,1.49101 -1.44994,2.02099 0.14038,0.98446 1.15044,1.10643 4.66773,0.56362 3.81174,-0.58824 4.91545,-0.21022 6.99645,2.39627 1.64508,2.06049 3.53726,5.47819 3.21266,5.80279 -0.10379,0.10379 -0.75276,-0.047 -1.44215,-0.335 -1.12328,-0.46934 -1.30994,-0.46723 -1.79749,0.0203 -0.66913,0.66912 -0.66989,0.82167 -0.0209,4.21301 0.918,4.79735 0.5275,7.55317 -1.20137,8.47844 -1.73498,0.92853 -3.57608,-0.01 -5.91303,-3.01361 -1.86241,-2.39386 -2.66111,-2.63081 -3.9616,-1.17531 -0.55131,0.61702 -1.50126,1.26493 -2.111,1.4398 -1.5858,0.4548 -8.92764,0.6004 -10.37372,0.10271 -1.43069,-0.49239 -1.0675,-0.24728 0.41412,-7.45809 1.87071,-9.10512 1.76688,-20.9334 -0.38576,-43.94721 l -0.99505,-10.63802 7.20634,-7.26186 c 7.68734,-7.74658 24.78773,-22.67238 29.71503,-25.9363 2.91483,-1.93083 3.71863,-2.86795 3.0411,-3.54548 -0.22122,-0.22122 -0.6807,-0.40222 -1.02108,-0.40222 -1.08795,0 -1.73203,-1.94299 -2.01608,-6.081885 -0.42195,-6.148111 -1.24303,-7.25729 -7.79693,-10.532746 -4.83537,-2.416588 -7.42475,-4.242375 -10.39643,-7.330608 -4.15471,-4.317643 -7.05722,-9.610405 -8.52918,-15.553032 -0.76216,-3.07702 -1.04784,-11.115443 -0.51432,-14.471868 0.5452,-3.429882 2.27297,-8.074034 3.93143,-10.56746 1.93582,-2.910416 6.24066,-7.377038 9.44549,-9.800468 3.37546,-2.55245 8.72591,-5.195479 12.62334,-6.235704 4.02647,-1.074666 10.62486,-1.320354 14.4802,-0.539164 6.22635,1.261622 10.27825,3.387944 16.09879,8.448213 8.05694,7.004546 11.80677,15.018722 11.7941,25.20649 -0.008,6.315823 -1.94647,13.337674 -4.90582,17.769332 -1.80477,2.702667 -7.13336,7.764598 -10.62251,10.09094 -5.17398,3.449661 -10.63055,5.646461 -14.02512,5.646461 -1.74522,0 -3.46026,0.588436 -3.72488,1.27802 -0.12433,0.324002 0.20266,0.911608 0.83708,1.504243 1.29285,1.207705 1.35083,1.362545 3.64295,9.728866 2.10839,7.69575 4.19086,13.66378 6.83126,19.57731 3.58461,8.02823 6.90425,18.10319 7.87225,23.89194 0.72171,4.31592 1.03797,18.99675 0.5334,24.76076 -0.57728,6.59467 -1.34026,8.94841 -5.85591,18.06519 -2.18361,4.40856 -3.92571,8.055 -3.87134,8.10321 0.0544,0.0482 1.51249,0.79446 3.24026,1.65834 1.72777,0.86388 4.63143,2.72167 6.45257,4.12841 6.44947,4.98192 15.01839,14.33312 16.79682,18.33025 0.71934,1.61677 0.55858,2.45148 -0.83539,4.33764 -1.26934,1.71751 -5.34855,4.62566 -9.85997,7.02937 -5.50905,2.93525 -7.00997,3.90778 -7.73232,5.01023 -0.572,0.873 -0.56932,0.93775 0.0578,1.39634 0.36172,0.2645 1.03557,0.4809 1.49746,0.4809 2.46785,0 4.99918,2.46756 7.98058,7.77954 4.11358,7.32921 6.06093,12.48209 4.97648,13.16826 -0.77009,0.48727 -2.06092,0.36956 -4.13767,-0.37732 z m -64.13332,-58.96269 c 1.01657,-0.20592 3.02546,-0.74644 4.46421,-1.20117 1.43875,-0.45473 3.08677,-0.96632 3.66227,-1.13687 0.5755,-0.17054 1.09711,-0.57174 1.15913,-0.89155 0.0998,-0.51467 -0.33269,-0.58148 -3.76417,-0.58148 -5.55382,0 -11.23579,1.29282 -11.7671,2.67737 -0.52895,1.37843 2.40671,1.9113 6.24566,1.1337 z"
       style="fill:#ffffff;fill-opacity:1;stroke:#ffffff;stroke-width:1.548;stroke-linejoin:round;stroke-miterlimit:4;stroke-dasharray:none;stroke-opacity:1;stop-color:#000000;font-variation-settings:normal;opacity:1;vector-effect:none;stroke-linecap:butt;stroke-dashoffset:0;stop-opacity:1"
       id="walkFill4" />
    <ellipse
       ry="7.0688572"
       rx="3.5344286"
       cy="57.362812"
       cx="898.38708"
       id="eye4"
       style="font-variation-settings:normal;opacity:1;vector-effect:none;fill:#1a1a1a;fill-opacity:1;stroke:#ffffff;stroke-width:1.548;stroke-linecap:butt;stroke-linejoin:round;stroke-miterlimit:4;stroke-dasharray:none;stroke-dashoffset:0;stroke-opacity:1;stop-color:#000000;stop-opacity:1" />
  </g>
  <g
     id="walk5">
    <path
       d="m 1123,34 c -19,0 -36,14 -37,33 -1,6 -1,13 0,16 2,6 12,19 20,22 9,5 7,9 -9,18 -8,5 -18,11 -22,14 -7,5 -7,5 -9,22 0,9 -2,22 -4,30 -2,7 -2,14 -2,15 1,1 5,3 9,3 4,1 8,3 9,4 2,4 11,-2 11,-7 0,-3 1,-6 2,-7 3,-2 -2,-17 -6,-17 -1,0 -2,-6 -2,-14 v -14 l 11,-5 c 15,-7 15,-6 15,5 0,11 -3,25 -10,39 -3,7 -4,12 -3,20 2,18 -11,31 -35,34 -4,1 -8,3 -9,5 -2,4 3,36 5,39 6,7 32,6 32,-1 0,-2 -2,-5 -4,-7 -13,-11 -15,-16 -6,-17 10,-2 19,-10 26,-22 l 6,-12 7,8 c 13,14 21,37 21,56 v 9 l 7,-2 c 23,-4 53,-29 40,-34 -3,-1 -16,1 -23,4 -2,1 -4,-2 -9,-12 -3,-8 -9,-19 -14,-26 l -8,-13 7,-14 c 5,-10 7,-17 8,-26 0,-6 1,-12 2,-12 0,0 3,2 7,4 l 7,4 8,-7 c 4,-4 9,-7 10,-7 6,0 12,-5 12,-10 0,-5 -5,-19 -10,-26 -3,-4 -3,-5 -9,-2 -3,2 -7,6 -10,10 -4,7 -4,7 -1,11 2,2 2,4 0,6 -2,3 -4,1 -18,-13 -18,-20 -20,-26 -9,-31 33,-13 34,-54 2,-69 -5,-2 -10,-4 -15,-4 z m -1,4 c 21,-1 36,13 36,33 0,6 -2,14 -3,17 -4,8 -15,16 -23,17 -6,2 -6,2 -4,11 0,5 3,14 6,20 8,17 12,35 10,46 -1,10 -12,34 -15,34 -3,0 -2,4 6,14 5,7 17,29 24,44 0,0 5,-1 12,-3 9,-2 13,-3 15,-1 3,3 -11,17 -24,23 -21,9 -21,9 -21,-1 0,-23 -9,-44 -28,-63 -14,-13 -15,-14 -15,-23 0,-5 2,-13 6,-20 6,-12 10,-35 8,-41 -1,-2 0,-4 2,-5 5,-4 -11,0 -22,5 l -11,5 v 15 c 0,12 0,15 -3,17 -3,2 -3,2 2,2 5,-1 6,0 8,4 2,6 2,10 -1,6 -1,-2 -1,-1 -1,5 0,6 0,8 -3,9 -2,0 -4,-1 -5,-5 -1,-3 -2,-5 -6,-5 -2,0 -5,1 -6,2 0,2 1,2 4,1 3,-1 5,0 5,1 0,2 -11,3 -12,0 -1,0 0,-5 1,-10 2,-5 4,-18 5,-28 0,-11 1,-20 2,-21 3,-4 39,-25 44,-25 4,0 5,0 3,-1 -2,-1 -3,-4 -3,-7 0,-3 -3,-5 -7,-7 -20,-8 -27,-35 -14,-52 7,-9 16,-13 28,-13 z m 56,87 c 1,0 3,2 4,4 4,5 4,6 -1,10 -6,7 -7,6 -10,-1 -2,-6 -1,-9 4,-12 1,0 2,0 3,-1 z m -40,10 c 1,-1 5,4 11,10 10,12 12,13 16,8 4,-4 16,1 13,6 0,1 -2,0 -4,-1 -3,-2 -3,-2 -2,1 1,3 0,5 -3,9 -5,5 -7,5 -15,0 -5,-4 -8,-8 -12,-19 z m 27,3 c 1,-1 3,1 5,4 5,8 4,10 -2,3 -3,-2 -4,-5 -4,-7 z m 20,0 c 2,0 2,1 3,3 1,2 0,5 -3,7 -3,2 -4,4 -2,4 1,0 3,-1 4,-2 2,-2 3,-2 4,1 0,2 0,4 -2,5 -5,3 -7,3 -9,-4 -3,-5 -3,-6 0,-10 3,-2 4,-3 5,-4 z m -84,84 c 2,0 3,1 4,3 3,3 2,5 -2,13 -5,13 -13,19 -24,23 -5,1 -9,2 -9,2 -2,2 5,15 8,16 5,2 10,7 8,9 0,1 -6,2 -13,2 -14,0 -16,-2 -16,-24 l -1,-16 11,-3 c 15,-4 23,-9 27,-17 3,-5 5,-8 7,-8 z"
       style="stroke:#000000;stroke-opacity:1;fill:#000000;stroke-width:1;stroke-miterlimit:4;stroke-dasharray:none;fill-opacity:1"
       id="walkLine5" />
    <path
       sodipodi:nodetypes="ssscssscssscsssssssssssssssssssssscssssssssssssssssscssscssssssscssssssssssssssssscssssssscsssscsssssssssscsssssccc"
       d="m 1065.8287,288.83474 c -3.5239,-0.69609 -4.6629,-1.46569 -5.9746,-4.03695 -1.4543,-2.85065 -3.1161,-9.8927 -2.8262,-23.81576 l -0.5232,-10.4212 9.732,-2.65955 c 16.0183,-4.37744 23.5076,-9.206 28.4692,-17.70142 3.091,-5.29261 5.0036,-7.45165 6.6009,-7.45165 1.8213,0 4.6067,3.71351 4.5404,6.05326 -0.028,0.97767 -1.806,5.42893 -3.9517,9.89169 -3.5359,7.35415 -4.3157,8.52359 -8.3259,12.4861 -5.3135,5.25034 -9.967,7.75556 -18.298,9.85076 l -5.8452,1.47004 -0.1727,2.03998 c -0.124,1.46508 0.4819,3.34113 2.15,6.65715 2.7043,5.37577 4.2451,7.08254 9.1547,10.14144 3.9419,2.45589 5.9346,5.19661 4.5899,6.31263 -1.7387,1.44293 -14.1556,2.20357 -19.3196,1.18348 z m 116.848,-132.63672 c -0.4901,-0.55821 -1.0823,-1.66738 -1.3159,-2.46482 -0.2336,-0.79744 -0.8486,-2.30833 -1.5185,-3.25822 -1.6732,-2.37232 -1.8308,-5.99523 0.162,-7.31186 1.573,-1.03935 5.682,-4.73616 5.9419,-4.43376 0.7627,0.8876 1.5017,3.0091 1.5017,4.3113 0,1.13626 -0.8709,2.3996 -3.1905,4.62842 -2.1576,2.07309 -3.0763,3.3632 -2.8378,3.98489 0.5201,1.35531 2.85,1.35725 5.1523,-0.5639 4.8443,-4.04232 3.7758,-1.5079 3.7758,0.54764 0,2.33238 -0.6061,3.24517 -2.9482,4.44003 -2.7399,1.39775 -3.5822,1.41921 -4.7228,0.12028 z m -12.9376,-9.63435 c -3.5611,-3.71789 -6.273,-8.21332 -4.4711,-8.21332 1.0172,0 5.0267,4.88544 6.5286,7.82951 1.9081,3.74009 1.271,3.85894 -2.0575,0.38381 z m 4.5008,-4.00685 c -1.7214,-2.15005 -3.1847,-6.16391 -3.2495,-8.91331 -0.061,-2.61235 0.1631,-3.27331 1.6356,-4.81202 1.985,-2.07428 5.3478,-3.23996 6.526,-2.26215 1.7095,1.41879 5.12,6.53693 5.12,7.76732 0,0.82878 -1.533,2.22478 -3.6386,4.30797 -4.0166,3.97392 -5.5787,4.92978 -6.3935,3.91219 z m -16.2502,26.87094 c -7.9398,-3.80729 -12.7673,-11.41717 -17.2494,-27.19162 -0.8451,-2.97413 -2.249,-6.74655 -2.0982,-6.89727 0.1507,-0.15071 3.8162,3.87818 7.1241,7.46718 13.1034,14.21704 14.2913,15.09542 17.229,12.73943 3.4462,-2.76388 4.2938,-3.1538 6.7735,-3.11631 3.1543,0.0477 7.1449,2.17347 7.6179,4.05795 0.5235,2.0856 0.5577,2.95088 -2.282,1.44441 -3.1808,-1.68741 -4.648,-1.88418 -3.8102,1.41652 0.5533,2.1797 0.4556,2.70929 -0.9892,5.36383 -1.7732,3.25793 -4.5613,5.69708 -7.0439,6.16229 -1.095,0.2052 -2.8067,-0.26445 -5.2716,-1.44641 z m -15.9996,127.48608 c -0.1662,-1.07846 -0.428,-5.09262 -0.5818,-8.92034 -0.9406,-23.41116 -11.4578,-44.23923 -31.8951,-63.16455 -3.3227,-3.07689 -7.0465,-7.05443 -8.2751,-8.83899 l -2.2338,-3.24463 -0.4576,-6.16275 c -0.5289,-7.12276 1.3507,-10.39122 5.227,-18.63185 3.1711,-6.74137 4.4281,-10.2471 6.2646,-17.47223 2.1778,-8.56771 3.3602,-17.56211 2.9257,-22.2549 -0.5545,-5.98717 -0.5143,-6.25995 1.0933,-7.43102 0.8117,-0.59131 1.4759,-1.43985 1.4759,-1.88563 0,-3.11808 -13.4853,0.66772 -30.8828,8.66988 l -4.4946,2.06738 v 13.66228 c 0,14.85042 -0.3172,16.72579 -3.1414,18.57627 -2.8129,1.84308 -1.9344,2.58822 3.0515,2.58822 3.632,0 4.7389,0.20899 5.4874,1.03615 1.24,1.37018 2.4887,4.50333 2.9384,7.37324 0.3537,2.25702 0.3381,2.2845 -0.5772,1.01493 -1.9138,-2.65468 -2.4251,-1.67289 -2.6328,5.05538 -0.2266,7.34157 -0.9424,8.81403 -3.797,7.81014 -1.1817,-0.41558 -1.8615,-1.30002 -2.6515,-3.44993 -1.6263,-4.42556 -3.2879,-5.79926 -6.9562,-5.75094 -2.8541,0.0376 -6.8002,1.4732 -6.8002,2.47394 0,0.24983 0.3485,0.93073 0.7743,1.51311 0.7059,0.96536 1.0324,0.99276 3.6954,0.31025 3.1336,-0.80312 6.2173,-0.3226 3.9397,0.61392 -1.7205,0.70748 -7.727,0.65409 -9.1003,-0.0809 -1.0681,-0.57163 -1.1539,-0.9863 -0.8101,-3.91471 0.2115,-1.80145 1.0431,-5.69314 1.8479,-8.64821 1.8669,-6.85449 4.2848,-23.39766 4.3007,-29.42463 0.018,-6.99063 1.047,-15.41223 2.0738,-16.97937 1.6887,-2.57725 22.2734,-15.20025 34.8516,-21.37174 3.383,-1.65985 4.9772,-2.79759 7.2513,-3.11904 1.9691,-0.27832 5.3838,-0.65544 5.5664,-0.83805 0.1826,-0.18261 -0.4841,-1.12993 -1.4816,-2.10517 -1.3231,-1.29351 -1.9133,-2.50755 -2.1819,-4.48803 -0.7059,-5.20358 -1.3024,-5.85111 -8.9702,-9.73752 -5.8458,-2.962962 -12.3503,-9.431177 -14.9571,-14.873847 -6.4808,-13.530578 -4.3089,-28.582789 5.5696,-38.599427 6.723,-6.817048 13.6635,-9.38903 25.3364,-9.38903 11.5438,0 18.6117,2.58129 25.2917,9.236904 4.3727,4.356731 6.4875,8.119155 8.0938,14.399781 1.4232,5.564705 1.4181,10.172186 -0.02,17.588871 -1.423,7.340626 -2.7229,10.055353 -6.7967,14.194813 -5.3295,5.415345 -10.1306,8.140635 -18.3014,10.388675 -5.1736,1.4234 -5.4277,2.1185 -3.9701,10.85928 1.5305,9.17746 2.3235,11.76932 6.4654,21.13121 6.0121,13.58912 9.2358,24.99786 10.1386,35.88081 0.7265,8.75734 -2.1383,19.66903 -8.6791,33.05761 -3.3626,6.88295 -5.1718,9.56931 -6.4447,9.56931 -0.4441,0 -1.0922,0.53198 -1.4402,1.18218 -0.7743,1.44691 1.0709,5.81541 4.1552,9.83702 5.8358,7.60935 11.4384,17.17323 20.7716,35.45786 l 6.7019,13.12948 8.9848,-2.26599 c 9.3401,-2.35558 15.9799,-3.26503 17.2829,-2.36722 0.5092,0.35088 0.6237,1.07652 0.3482,2.20756 -0.6151,2.52555 -10.0942,11.69888 -16.1857,15.66351 -5.9369,3.86405 -20.1027,10.01803 -24.169,10.49962 l -2.718,0.32191 -0.3021,-1.96085 z"
       style="fill:#ffffff;fill-opacity:1;stroke:#ffffff;stroke-width:1.548;stroke-linejoin:round;stroke-miterlimit:4;stroke-dasharray:none;stroke-opacity:1;stop-color:#000000;font-variation-settings:normal;opacity:1;vector-effect:none;stroke-linecap:butt;stroke-dashoffset:0;stop-opacity:1"
       id="walkFill5" />
    <ellipse
       ry="7.0688572"
       rx="3.5344286"
       cy="72.95784"
       cx="1151.167"
       id="eye5"
       style="font-variation-settings:normal;opacity:1;vector-effect:none;fill:#1a1a1a;fill-opacity:1;stroke:#ffffff;stroke-width:1.548;stroke-linecap:butt;stroke-linejoin:round;stroke-miterlimit:4;stroke-dasharray:none;stroke-dashoffset:0;stroke-opacity:1;stop-color:#000000;stop-opacity:1" />
  </g>
  <g
     id="walk6">
    <path
       d="m 1373,53 c -10,1 -19,4 -26,12 -17,19 -14,45 8,57 9,6 10,9 5,10 -9,3 -21,9 -31,16 -10,6 -11,8 -17,22 -3,8 -8,20 -11,26 -3,7 -6,13 -6,14 0,2 21,11 25,11 2,0 4,-1 5,-3 0,-2 2,-5 3,-7 2,-5 2,-13 -1,-18 -2,-4 -1,-8 1,-16 3,-10 4,-11 12,-14 5,-2 11,-4 15,-5 6,-1 6,-1 6,6 0,10 -4,25 -10,38 -4,10 -5,22 -2,29 1,2 2,6 2,9 0,5 0,5 -7,5 -4,0 -11,-1 -16,-3 -4,-1 -8,-3 -8,-3 -2,0 2,21 7,30 5,13 17,25 20,23 3,-1 2,-14 -1,-21 -1,-3 0,-4 5,-4 3,0 9,-1 12,-2 6,-2 7,-3 6,-11 0,-5 0,-9 1,-9 1,0 4,4 7,9 4,7 5,11 3,16 -1,6 -7,21 -12,32 -1,0 2,2 6,3 8,3 38,1 46,-2 3,-1 5,-3 5,-4 -2,-5 -11,-10 -19,-11 l -8,-1 4,-14 c 4,-14 4,-14 0,-20 -2,-2 -7,-9 -10,-14 l -7,-9 7,-14 c 5,-10 6,-17 6,-25 0,-7 1,-12 2,-12 1,0 5,2 9,3 8,3 8,3 16,-2 5,-2 9,-5 10,-5 2,0 5,-1 9,-3 5,-3 6,-4 4,-9 -1,-8 -7,-21 -11,-27 -3,-4 -3,-4 -11,3 -10,10 -12,14 -7,18 3,4 3,4 0,5 -2,1 -9,-3 -19,-12 -8,-7 -16,-13 -17,-13 -1,0 -2,-2 -2,-5 0,-3 2,-5 5,-6 7,-1 19,-12 23,-20 4,-7 4,-24 0,-32 -7,-14 -22,-21 -36,-21 z m 1,3 c 8,0 16,3 23,9 12,9 16,25 10,39 -4,9 -16,19 -24,20 -7,2 -7,2 -6,7 1,3 4,10 7,15 15,31 15,58 -1,79 -2,3 0,6 8,18 l 11,15 -2,11 c -2,6 -3,13 -4,15 -1,4 0,5 8,6 9,1 20,8 17,10 0,0 -7,2 -14,3 -14,2 -17,2 -28,0 -8,-1 -8,-2 -2,-15 3,-5 5,-14 6,-19 1,-7 0,-10 -5,-18 -4,-5 -11,-12 -17,-16 -14,-9 -15,-15 -5,-36 4,-11 6,-19 7,-30 l 1,-16 -7,1 c -4,1 -12,4 -18,7 -10,5 -11,6 -14,18 -3,8 -5,12 -7,12 -1,0 -2,1 -2,2 1,1 3,2 5,2 4,0 6,4 6,9 0,2 0,3 -2,2 -1,0 -2,1 -2,3 0,10 -7,14 -9,5 -1,-3 -2,-4 -2,-3 -2,2 -9,2 -12,-1 -2,0 1,-8 5,-17 4,-9 9,-21 11,-26 3,-7 6,-11 13,-16 11,-8 28,-16 34,-16 3,0 4,-1 4,-5 0,-4 -2,-6 -9,-9 -11,-5 -19,-16 -19,-29 0,-13 2,-18 12,-27 7,-6 15,-9 23,-9 z m 59,82 c 1,0 2,1 3,2 2,3 3,5 3,6 0,2 -2,5 -4,7 l -5,5 -3,-6 c -3,-6 -3,-6 2,-11 2,-2 3,-3 4,-3 z m -45,6 c 0,0 7,5 14,12 12,10 14,12 18,10 4,-3 13,0 13,4 0,2 0,3 -2,3 -1,0 -2,-1 -2,-2 0,-1 0,-2 -1,-2 -1,0 -2,2 -1,4 0,2 -1,4 -5,6 -2,1 -6,2 -7,2 -5,0 -18,-6 -18,-8 0,-1 -2,-8 -5,-15 -3,-7 -5,-13 -4,-14 z m 32,7 c 1,0 3,1 5,4 3,3 4,6 3,6 -3,0 -9,-7 -8,-10 z m 21,1 c 3,0 3,6 -2,9 -2,2 -4,4 -2,4 1,0 3,-1 3,-2 2,-3 5,-2 5,2 0,2 -1,4 -3,5 -4,2 -4,2 -8,-5 -3,-6 -2,-9 4,-12 1,0 2,-1 3,-1 z m -84,85 h 1 c 5,1 7,4 8,14 0,8 0,9 -5,12 -3,1 -8,2 -12,1 -8,-1 -9,-1 -5,9 1,3 1,8 1,11 l -1,6 -6,-7 c -7,-8 -15,-27 -15,-35 0,-4 0,-4 11,-1 16,4 20,3 20,-5 0,-4 1,-5 3,-5 z"
       style="stroke:#000000;stroke-opacity:1;fill:#000000;stroke-width:1;stroke-miterlimit:4;stroke-dasharray:none;fill-opacity:1"
       id="walkLine6" />
    <path
       sodipodi:nodetypes="sssssssscssssscssssscssssssssssscsssssscsscsssssscssssssssssssscsssssssssssssssssssssssssssssscssscssssss"
       d="m 1340.1061,284.39723 c -6.1403,-7.17492 -10.3911,-15.07424 -14.1388,-26.27384 -2.0007,-5.97918 -2.7904,-12.63503 -1.4991,-12.63503 0.2998,0 3.7596,0.78512 7.6883,1.74471 11.1002,2.7112 15.9487,3.26587 18.624,2.13056 2.5249,-1.07149 3.8958,-3.637 3.8958,-7.29067 0,-3.52614 0.4205,-4.12784 2.8851,-4.12784 4.8692,0 7.8007,3.32454 7.745,13.13095 l -0.041,7.14889 -1.9933,1.99332 c -2.8446,2.84458 -4.5911,3.26155 -12.8491,3.32148 -6.4581,0.0469 -7.8619,-0.65039 -8.6788,0.51592 -0.9556,1.36434 -0.6169,3.80622 1.0878,7.84091 1.125,2.66287 3.2826,17.98554 0.9215,16.54401 l -0.3924,-0.23956 z m 96.6029,-116.19688 c -5.0862,-8.05703 -4.8576,-11.16189 1.042,-14.15144 3.4325,-1.73934 4.5429,-1.51519 4.5429,0.91703 0,1.36654 -0.805,2.63892 -3.5075,5.5439 -1.9291,2.07367 -3.3499,4.02542 -3.1571,4.33723 0.7362,1.19129 3.2685,0.54503 4.9111,-1.25335 2.117,-2.31782 3.4942,-1.93556 3.4942,0.96984 0,2.83339 -0.8842,4.27572 -3.2194,5.25143 -1.081,0.45169 -2.1012,0.82125 -2.267,0.82125 -0.1658,0 -0.9935,-1.09615 -1.8392,-2.43589 z m -8.8968,-16.15261 c -1.2901,-2.66761 -2.3455,-5.16216 -2.3455,-5.54344 0,-0.86625 4.9748,-6.44802 6.451,-7.23804 0.7343,-0.393 1.4519,-0.39206 2.1898,0.003 1.3373,0.71572 4.1246,5.33887 4.1246,6.84131 0,1.51491 -2.8754,5.80844 -5.7044,8.51772 l -2.37,2.26977 z m -2.7394,6.67724 c -2.1646,-1.70625 -5.0885,-6.35209 -4.7265,-7.38773 0.2835,-0.81083 5.1763,5.00646 6.8097,7.77174 1.2384,2.09643 0.3589,1.54094 -2.0832,-0.38401 z m -14.4025,20.65618 c -6.7192,-2.0007 -13.0536,-5.38743 -13.0582,-6.98171 0,-0.92861 -3.1073,-9.86745 -6.5576,-18.88055 -1.0995,-2.87224 -2.1752,-5.97261 -2.3905,-6.88971 l -0.3914,-1.66747 2.217,1.75592 c 1.2194,0.96576 4.9628,4.19668 8.3186,7.17983 7.8284,6.95891 11.2719,9.79476 14.3068,11.78227 2.6343,1.7251 4.3237,1.77282 9.2559,0.26144 2.9704,-0.91025 6.5443,-0.0326 8.7178,2.14084 1.606,1.60606 1.6222,3.88409 0.03,4.18764 -0.7465,0.14229 -1.1199,-0.2987 -1.388,-1.63963 -0.7856,-3.92756 -3.2597,-1.83539 -3.2597,2.45831 0,3.79955 -2.5946,4.96323 -8.8105,6.6186 -3.4513,0.9191 -2.6897,0.9546 -6.9898,-0.32578 z m -29.9322,123.80131 c -5.9288,3e-5 -6.7924,-1.85474 -7.193,-3.11685 -0.3795,-1.19585 1.5507,-6.68792 4.1952,-11.93656 2.2909,-4.54665 4.5972,-11.9424 5.6788,-18.20985 1.0839,-6.28072 0.5431,-9.6208 -2.4855,-15.35251 -2.5923,-4.90588 -12.0976,-14.83261 -18.4239,-19.24071 -6.9834,-4.86595 -9.4222,-7.14851 -10.9819,-10.27842 -2.5029,-5.02266 -1.8518,-9.49153 3.1041,-21.30558 6.4225,-15.31013 8.7448,-25.87762 9.6663,-43.98581 l 0.3913,-7.68869 -1.9603,0.33586 c -6.8628,1.1758 -9.0265,1.77204 -15.0159,4.13781 -16.5975,6.55587 -19.78,9.24454 -22.5246,19.02908 -2.4793,8.83918 -5.1474,14.00956 -7.6859,14.89451 -0.8856,0.30871 -1.7776,0.99771 -1.9823,1.5311 -0.4461,1.16262 1.4219,3.19299 3.6889,3.32971 5.3029,0.3198 6.5404,2.51512 6.8994,7.18115 0.2067,2.68657 0.3877,3.58 -0.7067,3.58 -1.6903,0 -3.2198,1.52772 -3.2198,4.30275 0,3.03811 -2.2013,7.47853 -3.8223,7.71014 -1.5094,0.21565 -2.4648,-0.91187 -4.0067,-4.72858 -1.2818,-3.17264 -1.3509,-3.20003 -5.2266,-2.07078 -2.5278,0.73654 -6.0033,0.12485 -8.1312,-1.43109 -1.0457,-0.76464 -1.3931,-0.83122 -0.7049,-3.42658 0.869,-3.27739 13.8182,-33.64473 17.5648,-41.38671 3.1979,-6.60799 6.7282,-10.30478 15.1559,-15.87085 10.528,-6.9532 22.3808,-12.33191 29.4878,-13.38132 4.1671,-0.61531 4.9427,-1.47466 4.9427,-5.47655 0,-4.52661 -1.3308,-6.09499 -7.8508,-9.25226 -15.2556,-7.38744 -21.8363,-19.9993 -19.4032,-37.185862 0.8362,-5.906522 3.1985,-10.266214 8.3022,-15.322254 7.9948,-7.920175 14.5132,-11.48427 23.8839,-11.930367 9.3134,-0.443373 15.9699,2.330128 24.292,8.99904 10.7665,8.627716 14.8504,21.878553 10.7911,35.013033 -1.4968,4.84329 -4.0004,8.60413 -8.9292,13.4135 -5.0735,4.95048 -9.4746,7.63256 -14.9219,9.09354 -5.101,1.36809 -7.2304,2.43951 -7.5913,3.81962 -0.5287,2.02176 1.3497,7.39799 5.62,16.08521 9.305,18.92979 12.4986,30.52052 12.4986,45.36206 0,12.7442 -2.5429,21.81282 -9.0371,32.22862 -2.0504,3.28859 -3.7255,6.24036 -3.7225,6.5595 0.022,2.37602 5.8725,11.90958 14.3977,23.46353 2.9287,3.96911 5.7486,7.31872 5.7486,7.70248 0,1.59677 -2.3161,10.69501 -4.1988,17.93927 -1.1091,4.26751 -2.019,8.60171 -2.022,9.63155 -0.01,2.5558 1.6575,3.52647 7.8947,4.60281 5.2972,0.91414 9.5573,2.35694 12.9889,4.39903 2.3652,1.40754 4.642,3.35708 4.642,3.97488 0,0.59358 -7.1804,3.12834 -14.6268,4.21709 -7.2705,1.06304 -22.1958,0.0413 -23.7651,0.0413 z"
       style="fill:#ffffff;fill-opacity:1;stroke:#ffffff;stroke-width:1.548;stroke-linejoin:round;stroke-miterlimit:4;stroke-dasharray:none;stroke-opacity:1;stop-color:#000000;font-variation-settings:normal;opacity:1;vector-effect:none;stroke-linecap:butt;stroke-dashoffset:0;stop-opacity:1"
       id="walkFill6" />
    <ellipse
       ry="7.0688572"
       rx="3.5344286"
       cy="91.07489"
       cx="1401.8678"
       id="eye6"
       style="font-variation-settings:normal;opacity:1;vector-effect:none;fill:#1a1a1a;fill-opacity:1;stroke:#ffffff;stroke-width:1.548;stroke-linecap:butt;stroke-linejoin:round;stroke-miterlimit:4;stroke-dasharray:none;stroke-dashoffset:0;stroke-opacity:1;stop-color:#000000;stop-opacity:1" />
  </g>
  <g
     id="walk7">
    <path
       d="m 1615,31 h -6 c -35,5 -44,50 -15,68 11,7 12,10 9,17 -4,7 -10,44 -11,59 0,7 -1,16 -3,21 -2,6 -2,10 0,15 4,10 3,23 -1,23 -3,0 -3,2 -1,9 3,7 -2,27 -11,46 -5,13 -5,14 3,16 8,1 37,0 44,-3 5,-2 6,-3 4,-6 -3,-5 -14,-10 -20,-10 -5,0 -6,0 -4,-5 1,-8 1,-8 8,-3 3,2 7,4 8,4 3,0 3,-9 -1,-17 -1,-4 -3,-8 -3,-8 0,0 3,0 7,1 6,2 15,1 17,-1 1,0 0,-7 -2,-15 -1,-8 -2,-17 -3,-20 0,-3 -1,-7 -3,-9 -2,-2 -1,-5 3,-16 4,-8 5,-17 5,-24 0,-10 -1,-16 -8,-43 -1,-5 -4,-10 -6,-12 -5,-5 -3,-13 3,-15 13,-4 25,-20 25,-35 0,-20 -17,-37 -38,-37 z m -1,3 c 7,0 14,1 17,3 3,2 8,6 11,9 16,19 6,51 -18,55 -6,2 -6,2 -5,9 1,4 4,13 7,20 12,27 14,44 7,63 -7,17 -10,17 -19,-4 l -7,-16 6,-16 c 8,-23 7,-22 5,-20 -2,1 -5,10 -8,19 l -6,17 7,17 c 7,15 8,17 5,20 -4,3 -2,3 4,0 3,-2 5,-1 8,1 4,4 5,8 1,6 -3,-2 -2,1 2,6 2,4 2,6 0,8 -2,3 -3,3 -6,0 -2,-2 -3,-2 -4,-1 0,1 -4,3 -7,3 -7,2 -7,2 -7,-7 0,-4 -3,-18 -7,-29 l -7,-22 5,-25 c 2,-14 5,-28 7,-31 4,-12 3,-15 -8,-21 -7,-4 -11,-8 -14,-14 -8,-17 -1,-39 14,-47 4,-2 11,-3 17,-3 z m -20,154 c 2,0 9,28 11,42 3,15 2,29 -4,49 l -3,9 9,1 c 10,1 20,7 17,10 -3,2 -43,4 -48,2 -2,-1 -1,-4 2,-11 12,-22 19,-66 14,-79 -2,-5 -2,-9 -1,-15 2,-4 3,-8 3,-8 z m 30,34 c -1,0 -4,2 -8,5 -3,3 -5,5 -4,5 1,0 3,-1 4,-2 1,-1 4,-3 6,-5 3,-1 4,-3 2,-3 z m 2,13 h 1 c 6,0 6,1 8,10 l 2,10 c 0,2 -13,1 -19,-1 -3,-1 -6,-1 -6,-1 -1,1 1,5 2,10 2,5 3,10 3,12 -1,3 -1,3 -6,-1 -5,-3 -5,-5 -3,-11 1,-4 1,-11 1,-15 0,-6 1,-6 6,-5 6,0 6,0 6,-4 0,-3 1,-4 5,-4 z m -12,1 c 2,0 4,1 4,2 1,1 0,2 -1,2 -2,0 -4,-1 -5,-2 0,-1 1,-2 2,-2 z"
       style="stroke:#000000;stroke-opacity:1;fill:#000000;stroke-width:1;stroke-miterlimit:4;stroke-dasharray:none;fill-opacity:1"
       id="walkLine7" />
    <path
       sodipodi:nodetypes="ssscssssssssssssssssssssssssscsssssssscsssssssssssssssssssssssssscssssssssssssssssssssssssc"
       d="m 1611.3554,232.56538 c 0.077,-0.11776 0.7063,-0.084 1.1424,-0.13651 0.38,-0.0457 0.764,-0.11009 0.8534,-0.14306 0.089,-0.033 0.1992,0.005 0.2439,0.0847 0.045,0.0795 -0.2479,0.24302 -0.6503,0.36328 -0.9282,0.27747 -2.1638,0.71239 -2.0126,0.48061 z m -0.1089,41.5457 c -4.1939,-3.14205 -4.9026,-3.92454 -3.6566,-8.89513 0.6187,-2.46813 1.6018,-7.43227 1.7701,-12.36888 0.1472,-4.31804 0.3365,-9.22847 0.6017,-9.73493 0.4165,-0.79539 1.3897,0.0854 5.2648,0.35887 5.2731,0.37213 6.3331,-2.22299 6.3331,-5.55416 0,-2.83043 1.4987,-2.28588 4.3416,-2.60367 3.4712,-0.38802 5.9053,0.49651 6.7497,2.23892 0.6807,1.40482 2.8959,11.34132 3.6755,15.95565 0.3786,2.24104 0.073,1.96104 -1.7869,2.30995 -2.3738,0.44533 -10.1021,-0.33746 -15.5039,-1.71367 -2.2831,-0.58166 -5.5954,-1.79841 -6.3647,-1.79841 -1.207,0 -1.3988,0.23305 -1.3988,1.69932 0,0.93462 1.2094,5.17385 2.1443,8.33391 3.4507,11.66419 3.8928,14.47413 2.4223,14.44278 -0.3722,-0.008 -2.8054,-1.33193 -4.5922,-2.67055 z m -33.1684,26.90874 c -0.6883,-0.13144 -2.0781,-0.0198 -2.7245,-1.28536 -0.5308,-1.03907 0.7188,-6.1305 4.7078,-13.53994 8.258,-15.33894 12.3516,-37.36483 13.7074,-58.17992 0.4013,-6.16194 -0.6132,-14.96131 -2.1077,-19.30515 -1.6551,-4.8107 -1.4648,-10.09366 0.7813,-15.16063 l 1.8814,-4.24445 1.2301,2.62011 c 4.2507,9.05366 8.0822,29.5604 10.2678,44.46246 2.0125,13.72157 -0.889,29.07975 -6.9803,47.00962 -0.9027,2.65693 -1.5538,4.91822 -1.4469,5.02511 0.1069,0.10689 3.609,0.0923 7.1485,0.51084 9.3145,1.10146 16.077,4.02582 19.0421,7.3022 1.7114,1.89109 0.4459,3.12541 -4.457,3.78665 -10.2182,1.37809 -36.2826,1.90894 -41.05,0.99846 z m 29.7715,-68.59 c 0,0 -0.6052,-2.43041 -0.5244,-6.22905 0.1714,-8.05575 -3.3143,-16.7209 -9.5121,-36.09287 -2.685,-8.3923 -4.3297,-14.86127 -4.3297,-15.50314 0,-0.64188 0.7068,-3.87 1.7591,-9.05741 1.0523,-5.18739 3.2762,-16.74656 4.3143,-22.67296 2.2094,-12.61449 3.1886,-17.19962 5.273,-22.87245 3.161,-8.60277 3.6488,-13.18045 0.4111,-16.86793 -0.9097,-1.03611 -4.4218,-3.772813 -7.8919,-5.679259 -8.0741,-4.435842 -11.4573,-7.897451 -13.9347,-13.088404 -4.6173,-9.674694 -4.8008,-22.15203 0.3411,-32.787802 4.1395,-8.562453 10.7523,-14.726443 18.1623,-16.411813 7.6212,-1.733389 19.1768,-1.374349 25.7302,0.505748 2.3195,0.665448 9.4159,5.724622 13.5787,9.770637 3.1084,3.02115 5.1439,8.254201 6.6625,13.295208 0.7093,2.354355 1.455,5.204749 1.4349,9.717261 -0.024,5.387609 -0.4129,6.757231 -1.7593,10.728125 -1.8252,5.383101 -5.9889,11.553203 -9.6006,14.685441 -3.0784,2.669718 -7.6054,5.147445 -12.7158,6.474178 -2.2846,0.5931 -5.5202,1.59794 -6.3136,2.39133 -1.182,1.182 -0.8665,1.61678 -0.569,4.46264 0.4489,4.29458 2.896,11.71565 8.2133,24.90709 4.8272,11.97546 7.1795,19.09984 8.5968,25.49939 1.2309,5.55772 1.6735,16.75957 0.8474,22.00761 -1.4259,9.05787 -6.8329,23.24849 -9.8716,24.95702 -1.3458,0.75667 -2.1853,0.55898 -3.7453,-0.93566 -2.0113,-1.92694 -5.9592,-8.97432 -10.8964,-21.29484 L 1607,173 l 2.1985,-4.94521 c 5.1683,-11.62547 10.7367,-29.81767 10.7367,-31.19511 0,-2.81086 -2.3032,-1.04132 -4.3671,3.03047 -1.4563,2.87297 -11.9671,31.85479 -11.9553,33.09349 0.01,1.04415 4.9508,12.17753 10.6721,25.1259 3.2781,7.41876 3.6262,9.30125 1.2911,11.53836 -3.4039,3.26118 -1.9929,3.45129 3.6643,0.91309 3.9702,-1.78133 5.4135,-1.56347 8.0034,0.28071 1.6535,1.17736 3.7724,5.02046 3.9303,5.72825 0.178,0.79812 -0.9206,0.52019 -1.5919,0.2192 -1.4397,-0.64553 -2.9238,-0.92883 -2.9238,0.0706 0,0.39196 1.5619,2.8628 2.6432,4.45615 3.7871,5.58055 3.547,7.10299 1.3978,9.6571 -1.7131,2.03591 -2.7089,2.38268 -4.4258,0.53699 -2.0375,-2.19024 -4.1094,-2.99386 -5.4798,-1.70649 -1.3234,1.24324 -2.2531,1.64397 -3.496,2.08528 -1.0806,0.38368 -4.8556,0.97029 -3.8888,0.39448 0.5861,-0.34908 3.4015,-2.29505 4.8905,-3.53314 1.489,-1.23809 3.4754,-2.9197 4.5177,-3.63345 2.2794,-1.56089 3.0614,-1.99373 2.6953,-2.94764 -0.4853,-1.26481 -2.4213,-0.79271 -5.8101,1.41691 -4.3049,2.80685 -8.5662,7.13964 -8.3358,8.47561 0.1311,0.76041 -0.1642,1.26287 -1.4026,1.44303 -0.7878,0.11461 -1.5759,0.0617 -1.8603,-0.53866 z"
       style="fill:#ffffff;fill-opacity:1;stroke:#ffffff;stroke-width:1.548;stroke-linejoin:round;stroke-miterlimit:4;stroke-dasharray:none;stroke-opacity:1;stop-color:#000000;font-variation-settings:normal;opacity:1;vector-effect:none;stroke-linecap:butt;stroke-dashoffset:0;stop-opacity:1"
       id="walkFill7" />
    <ellipse
       ry="7.0688572"
       rx="3.5344286"
       cy="68.501205"
       cx="1640.7423"
       id="eye7"
       style="font-variation-settings:normal;opacity:1;vector-effect:none;fill:#1a1a1a;fill-opacity:1;stroke:#ffffff;stroke-width:1.548;stroke-linecap:butt;stroke-linejoin:round;stroke-miterlimit:4;stroke-dasharray:none;stroke-dashoffset:0;stroke-opacity:1;stop-color:#000000;stop-opacity:1" />
  </g>
  <g
     id="walk8">
    <path
       d="m 1874,20 c -17,0 -29,8 -36,23 -7,17 0,36 16,46 5,3 9,7 9,8 0,5 -5,16 -10,21 -3,3 -9,10 -12,15 l -7,10 2,17 c 1,13 1,17 -1,21 -2,2 -4,7 -4,10 -2,6 -1,7 5,10 4,2 7,5 7,6 0,4 -17,38 -27,55 -12,19 -12,22 -1,36 l 5,7 19,-1 c 23,-1 26,-4 17,-12 -4,-4 -9,-6 -12,-6 -12,0 -12,-3 2,-35 7,-17 13,-32 14,-34 2,-5 13,-7 23,-4 12,4 10,6 -11,11 -2,0 9,16 15,23 8,8 20,15 26,15 4,0 2,-10 -5,-20 l -5,-8 7,-3 c 14,-6 14,-8 -3,-24 l -16,-15 4,-10 c 2,-6 4,-10 5,-9 11,4 32,9 34,9 3,-2 8,-26 6,-30 0,-1 -3,-2 -5,-2 -3,0 -6,-1 -7,-2 -2,-2 -15,3 -15,7 0,2 -1,2 -8,1 -5,-2 -8,-3 -8,-6 0,-4 -9,-32 -12,-39 -5,-10 -5,-16 2,-19 17,-7 25,-20 24,-38 -1,-20 -17,-34 -37,-34 z m -1,3 c 14,-1 28,8 34,21 8,18 -3,40 -24,46 -6,2 -7,3 -6,8 0,3 3,10 6,15 2,6 6,18 7,26 l 2,16 10,3 c 6,1 11,3 11,4 2,5 4,2 3,-3 -1,-4 0,-5 4,-7 7,-2 8,-2 6,0 -1,2 1,2 5,1 5,-1 7,0 8,2 1,2 0,5 -2,6 -1,1 -2,4 -2,6 0,2 0,3 -1,3 -1,0 -3,-3 -3,-6 -1,-4 -2,-6 -2,-6 -2,2 2,15 4,15 3,-1 3,4 1,6 -1,1 -14,-3 -28,-7 l -26,-9 -2,-16 c -3,-17 -4,-22 -6,-20 0,0 5,32 6,36 1,2 5,4 9,5 10,3 10,3 1,22 -6,12 -13,19 -21,18 -5,-1 -6,0 -13,17 -4,10 -11,27 -16,37 -8,18 -8,19 -5,23 2,2 6,3 9,3 5,0 17,9 15,11 -1,1 -9,2 -18,3 -19,1 -20,0 -27,-15 l -4,-7 10,-17 c 18,-28 31,-58 31,-69 0,-7 2,-15 7,-24 6,-14 6,-17 7,-38 0,-12 1,-27 1,-32 2,-9 2,-9 -7,-13 -28,-13 -24,-54 6,-63 3,-1 7,-1 10,-1 z m -15,95 c 1,-1 2,2 2,7 2,9 1,10 -5,15 l -6,6 2,12 c 1,10 1,13 -2,20 -4,8 -7,10 -10,7 -3,-3 -2,-5 3,-5 4,0 4,0 1,-2 -2,-2 -4,-8 -5,-19 l -1,-17 7,-9 c 4,-6 9,-11 11,-13 1,-2 2,-2 3,-2 z m 2,22 c 1,1 1,4 -1,12 -2,12 -5,13 -6,3 -1,-6 0,-9 3,-12 2,-2 3,-3 4,-3 z m -24,48 c 2,0 3,2 3,6 0,7 0,7 -3,4 -4,-4 -3,-10 0,-10 z m 8,1 c 1,0 2,2 2,5 1,5 -1,9 -3,7 -2,-2 -2,-10 0,-12 z m 46,7 c 2,0 27,24 27,27 0,1 -8,5 -16,8 -4,1 -4,1 0,6 4,5 10,16 10,19 0,9 -26,-11 -33,-25 -2,-4 -2,-5 7,-8 6,-2 10,-4 10,-6 0,-1 -3,-4 -7,-6 l -8,-3 4,-6 c 2,-3 5,-6 6,-6 z"
       style="stroke:#000000;stroke-opacity:1;fill:#000000;stroke-width:1;stroke-miterlimit:4;stroke-dasharray:none;fill-opacity:1"
       id="walkLine8" />
    <path
       sodipodi:nodetypes="ssssssssssssssssssssssssscssssssssscssssssscsssssscssssssssscsssssssssssssssssscssssssssssssssssssssssssssssssssss"
       d="m 1836.4472,197.40993 c -1.6283,-1.68824 -2.2406,-3.2274 -2.2406,-5.63234 0,-2.2596 1.1523,-3.59041 2.4893,-2.87488 0.4641,0.24835 0.9833,0.79495 1.1538,1.21467 0.5194,1.27817 0.9324,8.59572 0.4769,8.87725 -0.2295,0.14186 -1.1482,-0.82659 -1.8794,-1.5847 z m 6.3049,2.02632 c -0.7629,-1.47527 -0.9089,-7.75908 -0.2106,-9.06389 1.2554,-2.34566 2.8497,0.54354 2.9346,5.53533 0.051,2.99326 -0.5212,5.0603 -1.4007,5.0603 -0.2217,0 -0.9631,-0.83519 -1.3233,-1.53174 z m 62.0669,56.77125 c -9.1054,-4.38583 -24.2599,-19.62086 -26.8577,-27.00045 -0.4977,-1.41389 -0.4746,-1.68981 0.2045,-2.44022 0.4212,-0.46534 3.1932,-1.74006 6.1602,-2.83271 6.4079,-2.35981 8.4997,-3.366 10.0836,-4.85033 1.6942,-1.58768 1.5021,-2.67356 -0.8648,-4.88748 -2.5531,-2.3881 -4.9666,-3.77284 -9.2144,-5.2866 -2.1136,-0.75322 -3.2163,-1.3576 -3.0373,-1.66467 1.0342,-1.77406 3.9786,-5.9612 5.403,-7.68353 2.6443,-3.19748 2.9619,-3.25717 5.8103,-1.09204 3.3945,2.58038 21.1775,20.33201 22.6541,22.61428 1.1888,1.83725 1.1957,1.88423 0.3715,2.50097 -1.4162,1.0596 -8.7386,4.46678 -13.2787,6.17872 -2.3663,0.89227 -4.4905,1.919 -4.7204,2.28164 -0.3143,0.49566 0.031,1.2756 1.389,3.14177 4.0622,5.57994 6.6748,9.78749 8.9268,14.37588 3.8008,7.74448 2.982,9.54039 -3.0297,6.64477 z m -65.6378,-72.01339 c -1.2599,-1.49733 -1.4332,-2.75646 -0.4323,-3.14055 0.3734,-0.14331 1.7853,-0.26055 3.1374,-0.26055 1.4373,0 2.8019,-0.25125 3.2857,-0.60496 0.7904,-0.57798 1.005,-0.22377 -0.8711,-2.00395 -1.574,-1.49342 -2.4129,-2.92396 -3.1554,-5.33231 -1.4712,-4.77195 -2.202,-10.00588 -2.8926,-20.71471 l -0.6438,-9.98334 2.2942,-2.89431 c 1.2619,-1.59187 3.8223,-4.92254 5.6898,-7.40148 1.8675,-2.47895 4.464,-5.67668 5.7701,-7.10608 1.306,-1.42939 3.1067,-3.40933 4.0015,-4.39986 0.8949,-0.99053 1.9968,-1.80097 2.4488,-1.80097 0.9109,0 0.8358,-0.3103 1.9479,8.04379 0.9597,7.20817 0.9677,7.18939 -5.9101,13.84672 l -5.5449,5.36718 1.1074,6.50582 c 2.2733,13.35541 1.9458,19.09708 -1.4953,26.21433 -3.1663,6.54895 -6.2897,8.5741 -8.7373,5.66523 z m -16.1352,116.38072 c -3.2984,-1.13272 -5.3442,-3.56038 -8.9862,-10.6634 -1.6589,-3.23544 -3.528,-6.78675 -4.1535,-7.8918 l -1.1373,-2.00918 4.2073,-7.2198 c 2.3141,-3.97089 5.5926,-9.44119 7.2857,-12.15623 16.7035,-26.78601 29.3978,-55.76224 29.3978,-67.10407 0,-5.92487 2.0242,-13.31356 5.7752,-21.08087 6.6162,-13.70002 7.3311,-18.9815 8.1996,-48.53275 0.3853,-13.10971 0.2877,-18.77949 1.7781,-29.471268 0.4829,-3.464325 -0.3092,-4.161777 -6.398,-7.222326 -5.399,-2.713783 -6.6645,-3.496543 -9.6973,-5.99806 -3.8552,-3.179856 -7.6439,-9.167224 -9.3831,-14.828504 -0.6247,-2.033312 -1.7029,-3.428938 -1.7009,-8.68166 0,-6.381386 0.9712,-7.362613 2.2949,-11.158645 3.0259,-8.678096 8.2837,-14.96305 15.9996,-19.124927 5.6678,-3.05719 8.0678,-3.713444 16.7087,-3.713444 6.9014,0 7.888,0.289845 10.7636,1.188199 9.6288,3.00809 17.3702,9.535852 21.715,18.310712 6.2387,12.599686 3.1789,27.203442 -7.8838,37.628254 -3.9024,3.677375 -7.7632,5.948078 -13.867,8.155744 -2.6954,0.974873 -5.3616,2.073868 -5.925,2.442208 -1.6871,1.102923 -2.2085,2.946689 -1.7497,6.186443 0.5486,3.874054 2.3362,7.916584 5.2623,13.912564 2.5964,5.32032 5.0139,13.94862 6.6831,21.65267 0.4819,2.2245 1.3886,8.09749 2.0147,13.0511 0.6262,4.9536 1.3296,9.1259 1.5632,9.27177 0.5217,0.32578 10.2754,3.12417 14.0321,4.02588 3.915,0.93973 6.4251,2.14764 6.8676,3.30481 0.5439,1.42233 1.948,2.55897 2.771,2.24317 1.1523,-0.4422 1.6712,-3.26013 1.1399,-6.19033 -0.798,-4.40078 0.2646,-5.38294 8.1597,-7.54176 0.4813,-0.13159 0.6468,0.18053 0.6439,1.21405 0,1.39056 0,1.39117 2.1423,1.34016 1.1805,-0.0281 3.5951,-0.19459 5.3657,-0.37004 2.9309,-0.29044 3.3252,-0.23499 4.3999,0.61875 1.7627,1.40029 1.8427,4.46965 -0.3149,6.01804 -1.9951,1.43183 -2.5982,6.13443 -2.5982,8.52686 0,0.78347 -0.3749,0.49597 -0.59,0.49597 -0.5289,0 -2.1845,-3.48439 -2.1845,-4.59748 0,-1.04539 -1.5254,-6.05767 -2.1274,-6.99031 -0.3562,-0.55187 -0.5093,-0.52179 -1.0928,0.21463 -0.925,1.16762 -0.5901,4.99483 0.8266,9.44479 1.4417,4.5283 2.4484,6.12188 3.9782,6.2973 0.9666,0.11085 1.2333,0.38138 1.3458,1.36484 0.077,0.67463 -0.093,1.78937 -0.3777,2.4772 -0.4731,1.14217 -0.6528,1.22745 -2.072,0.98356 -6.0289,-1.03611 -23.0019,-6.03399 -38.0405,-11.20144 -7.3188,-2.51484 -13.346,-4.59597 -13.3938,-4.62476 -0.048,-0.0288 -0.5772,-3.90875 -1.1767,-8.62215 -1.8153,-14.27266 -4.3123,-26.09333 -5.7955,-27.43567 -0.9899,-0.89584 -2.1699,-0.41891 -2.1699,0.87702 0,0.8393 3.2444,21.31075 5.2208,32.94192 0.7732,4.55077 2.1919,5.68589 10.5849,8.46905 2.6728,0.88633 5.2322,1.94869 5.6876,2.3608 1.6642,1.50611 0.9734,4.29676 -3.4383,13.88913 -5.5651,12.09999 -9.9434,17.95514 -15.6941,20.98787 -1.8953,0.99949 -2.6607,1.13606 -6.5444,1.16769 -4.2574,0.0347 -4.4408,0.0762 -5.7292,1.29821 -1.8982,1.80028 -4.3851,6.97722 -10.677,22.22625 -3.0356,7.35709 -7.0053,16.66034 -8.8216,20.67387 -10.3825,22.94273 -12.194,27.8115 -11.3902,30.61415 1.0417,3.6322 4.3339,5.78367 9.9392,6.49534 3.6196,0.45956 5.5772,1.18872 8.9031,3.31624 2.7608,1.76607 6.9353,5.61218 6.9353,6.38975 0,1.26251 -14.8467,3.53011 -24.3767,3.51031 -5.4662,-0.0114 -7.1917,-0.49927 -9.1052,-1.1564 z"
       style="fill:#ffffff;fill-opacity:1;stroke:#ffffff;stroke-width:1.548;stroke-linejoin:round;stroke-miterlimit:4;stroke-dasharray:none;stroke-opacity:1;stop-color:#000000;font-variation-settings:normal;opacity:1;vector-effect:none;stroke-linecap:butt;stroke-dashoffset:0;stop-opacity:1"
       id="walkFill8" />
    <ellipse
       style="font-variation-settings:normal;opacity:1;vector-effect:none;fill:#1a1a1a;fill-opacity:1;stroke:#ffffff;stroke-width:1.548;stroke-linecap:butt;stroke-linejoin:round;stroke-miterlimit:4;stroke-dasharray:none;stroke-dashoffset:0;stroke-opacity:1;stop-color:#000000;stop-opacity:1"
       id="eye8"
       cx="1900.6013"
       cy="57.102398"
       rx="3.5344286"
       ry="7.0688572" />
  </g>
</svg>
